<svg version="1.1" xmlns="http://www.w3.org/2000/svg" xmlns:xlink="http://www.w3.org/1999/xlink" width="1204" height="524"><defs/><g><text fill="#eeeeee" stroke="none" font-family="Arial" font-size="24px" font-style="normal" font-weight="normal" text-decoration="none" x="0" y="0"> </text><text fill="#eeeeee" stroke="none" font-family="Arial" font-size="24px" font-style="normal" font-weight="normal" text-decoration="none" x="0" y="30"> </text><text fill="#eeeeee" stroke="none" font-family="Arial" font-size="24px" font-style="normal" font-weight="normal" text-decoration="none" x="0" y="60"> </text><text fill="#eeeeee" stroke="none" font-family="Arial" font-size="24px" font-style="normal" font-weight="normal" text-decoration="none" x="0" y="90"> </text><text fill="#eeeeee" stroke="none" font-family="Arial" font-size="24px" font-style="normal" font-weight="normal" text-decoration="none" x="0" y="120"> </text><text fill="#eeeeee" stroke="none" font-family="Arial" font-size="24px" font-style="normal" font-weight="normal" text-decoration="none" x="0" y="150"> </text><text fill="#eeeeee" stroke="none" font-family="Arial" font-size="24px" font-style="normal" font-weight="normal" text-decoration="none" x="0" y="180"> </text><text fill="#eeeeee" stroke="none" font-family="Arial" font-size="24px" font-style="normal" font-weight="normal" text-decoration="none" x="0" y="210"> </text><text fill="#eeeeee" stroke="none" font-family="Arial" font-size="24px" font-style="normal" font-weight="normal" text-decoration="none" x="0" y="240"> </text><text fill="#eeeeee" stroke="none" font-family="Arial" font-size="24px" font-style="normal" font-weight="normal" text-decoration="none" x="0" y="270"> </text><text fill="#eeeeee" stroke="none" font-family="Arial" font-size="24px" font-style="normal" font-weight="normal" text-decoration="none" x="0" y="300"> </text><text fill="#eeeeee" stroke="none" font-family="Arial" font-size="24px" font-style="normal" font-weight="normal" text-decoration="none" x="0" y="330"> </text><text fill="#eeeeee" stroke="none" font-family="Arial" font-size="24px" font-style="normal" font-weight="normal" text-decoration="none" x="0" y="360"> </text><text fill="#eeeeee" stroke="none" font-family="Arial" font-size="24px" font-style="normal" font-weight="normal" text-decoration="none" x="0" y="390"> </text><text fill="#eeeeee" stroke="none" font-family="Arial" font-size="24px" font-style="normal" font-weight="normal" text-decoration="none" x="0" y="420"> </text><text fill="#eeeeee" stroke="none" font-family="Arial" font-size="24px" font-style="normal" font-weight="normal" text-decoration="none" x="0" y="450"> </text><text fill="#eeeeee" stroke="none" font-family="Arial" font-size="24px" font-style="normal" font-weight="normal" text-decoration="none" x="0" y="480"> </text><text fill="#eeeeee" stroke="none" font-family="Arial" font-size="24px" font-style="normal" font-weight="normal" text-decoration="none" x="0" y="510"> </text><text fill="#eeeeee" stroke="none" font-family="Arial" font-size="24px" font-style="normal" font-weight="normal" text-decoration="none" x="200" y="0"> </text><text fill="#eeeeee" stroke="none" font-family="Arial" font-size="24px" font-style="normal" font-weight="normal" text-decoration="none" x="200" y="30"> </text><text fill="#eeeeee" stroke="none" font-family="Arial" font-size="24px" font-style="normal" font-weight="normal" text-decoration="none" x="200" y="60"> </text><text fill="#eeeeee" stroke="none" font-family="Arial" font-size="24px" font-style="normal" font-weight="normal" text-decoration="none" x="200" y="90"> </text><text fill="#eeeeee" stroke="none" font-family="Arial" font-size="24px" font-style="normal" font-weight="normal" text-decoration="none" x="200" y="120"> </text><text fill="#eeeeee" stroke="none" font-family="Arial" font-size="24px" font-style="normal" font-weight="normal" text-decoration="none" x="200" y="150"> </text><text fill="#eeeeee" stroke="none" font-family="Arial" font-size="24px" font-style="normal" font-weight="normal" text-decoration="none" x="200" y="180"> </text><text fill="#eeeeee" stroke="none" font-family="Arial" font-size="24px" font-style="normal" font-weight="normal" text-decoration="none" x="200" y="210"> </text><text fill="#eeeeee" stroke="none" font-family="Arial" font-size="24px" font-style="normal" font-weight="normal" text-decoration="none" x="200" y="240"> </text><text fill="#eeeeee" stroke="none" font-family="Arial" font-size="24px" font-style="normal" font-weight="normal" text-decoration="none" x="200" y="270"> </text><text fill="#eeeeee" stroke="none" font-family="Arial" font-size="24px" font-style="normal" font-weight="normal" text-decoration="none" x="200" y="300"> </text><text fill="#eeeeee" stroke="none" font-family="Arial" font-size="24px" font-style="normal" font-weight="normal" text-decoration="none" x="200" y="330"> </text><text fill="#eeeeee" stroke="none" font-family="Arial" font-size="24px" font-style="normal" font-weight="normal" text-decoration="none" x="200" y="360"> </text><text fill="#eeeeee" stroke="none" font-family="Arial" font-size="24px" font-style="normal" font-weight="normal" text-decoration="none" x="200" y="390"> </text><text fill="#eeeeee" stroke="none" font-family="Arial" font-size="24px" font-style="normal" font-weight="normal" text-decoration="none" x="200" y="420"> </text><text fill="#eeeeee" stroke="none" font-family="Arial" font-size="24px" font-style="normal" font-weight="normal" text-decoration="none" x="200" y="450"> </text><text fill="#eeeeee" stroke="none" font-family="Arial" font-size="24px" font-style="normal" font-weight="normal" text-decoration="none" x="200" y="480"> </text><text fill="#eeeeee" stroke="none" font-family="Arial" font-size="24px" font-style="normal" font-weight="normal" text-decoration="none" x="200" y="510"> </text><text fill="#eeeeee" stroke="none" font-family="Arial" font-size="24px" font-style="normal" font-weight="normal" text-decoration="none" x="400" y="0"> </text><text fill="#eeeeee" stroke="none" font-family="Arial" font-size="24px" font-style="normal" font-weight="normal" text-decoration="none" x="400" y="30"> </text><text fill="#eeeeee" stroke="none" font-family="Arial" font-size="24px" font-style="normal" font-weight="normal" text-decoration="none" x="400" y="60"> </text><text fill="#eeeeee" stroke="none" font-family="Arial" font-size="24px" font-style="normal" font-weight="normal" text-decoration="none" x="400" y="90"> </text><text fill="#eeeeee" stroke="none" font-family="Arial" font-size="24px" font-style="normal" font-weight="normal" text-decoration="none" x="400" y="120"> </text><text fill="#eeeeee" stroke="none" font-family="Arial" font-size="24px" font-style="normal" font-weight="normal" text-decoration="none" x="400" y="150"> </text><text fill="#eeeeee" stroke="none" font-family="Arial" font-size="24px" font-style="normal" font-weight="normal" text-decoration="none" x="400" y="180"> </text><text fill="#eeeeee" stroke="none" font-family="Arial" font-size="24px" font-style="normal" font-weight="normal" text-decoration="none" x="400" y="210"> </text><text fill="#eeeeee" stroke="none" font-family="Arial" font-size="24px" font-style="normal" font-weight="normal" text-decoration="none" x="400" y="240"> </text><text fill="#eeeeee" stroke="none" font-family="Arial" font-size="24px" font-style="normal" font-weight="normal" text-decoration="none" x="400" y="270"> </text><text fill="#eeeeee" stroke="none" font-family="Arial" font-size="24px" font-style="normal" font-weight="normal" text-decoration="none" x="400" y="300"> </text><text fill="#eeeeee" stroke="none" font-family="Arial" font-size="24px" font-style="normal" font-weight="normal" text-decoration="none" x="400" y="330"> </text><text fill="#eeeeee" stroke="none" font-family="Arial" font-size="24px" font-style="normal" font-weight="normal" text-decoration="none" x="400" y="360"> </text><text fill="#eeeeee" stroke="none" font-family="Arial" font-size="24px" font-style="normal" font-weight="normal" text-decoration="none" x="400" y="390"> </text><text fill="#eeeeee" stroke="none" font-family="Arial" font-size="24px" font-style="normal" font-weight="normal" text-decoration="none" x="400" y="420"> </text><text fill="#eeeeee" stroke="none" font-family="Arial" font-size="24px" font-style="normal" font-weight="normal" text-decoration="none" x="400" y="450"> </text><text fill="#eeeeee" stroke="none" font-family="Arial" font-size="24px" font-style="normal" font-weight="normal" text-decoration="none" x="400" y="480"> </text><text fill="#eeeeee" stroke="none" font-family="Arial" font-size="24px" font-style="normal" font-weight="normal" text-decoration="none" x="400" y="510"> </text><text fill="#eeeeee" stroke="none" font-family="Arial" font-size="24px" font-style="normal" font-weight="normal" text-decoration="none" x="600" y="0"> </text><text fill="#eeeeee" stroke="none" font-family="Arial" font-size="24px" font-style="normal" font-weight="normal" text-decoration="none" x="600" y="30"> </text><text fill="#eeeeee" stroke="none" font-family="Arial" font-size="24px" font-style="normal" font-weight="normal" text-decoration="none" x="600" y="60"> </text><text fill="#eeeeee" stroke="none" font-family="Arial" font-size="24px" font-style="normal" font-weight="normal" text-decoration="none" x="600" y="90"> </text><text fill="#eeeeee" stroke="none" font-family="Arial" font-size="24px" font-style="normal" font-weight="normal" text-decoration="none" x="600" y="120"> </text><text fill="#eeeeee" stroke="none" font-family="Arial" font-size="24px" font-style="normal" font-weight="normal" text-decoration="none" x="600" y="150"> </text><text fill="#eeeeee" stroke="none" font-family="Arial" font-size="24px" font-style="normal" font-weight="normal" text-decoration="none" x="600" y="180"> </text><text fill="#eeeeee" stroke="none" font-family="Arial" font-size="24px" font-style="normal" font-weight="normal" text-decoration="none" x="600" y="210"> </text><text fill="#eeeeee" stroke="none" font-family="Arial" font-size="24px" font-style="normal" font-weight="normal" text-decoration="none" x="600" y="240"> </text><text fill="#eeeeee" stroke="none" font-family="Arial" font-size="24px" font-style="normal" font-weight="normal" text-decoration="none" x="600" y="270"> </text><text fill="#eeeeee" stroke="none" font-family="Arial" font-size="24px" font-style="normal" font-weight="normal" text-decoration="none" x="600" y="300"> </text><text fill="#eeeeee" stroke="none" font-family="Arial" font-size="24px" font-style="normal" font-weight="normal" text-decoration="none" x="600" y="330"> </text><text fill="#eeeeee" stroke="none" font-family="Arial" font-size="24px" font-style="normal" font-weight="normal" text-decoration="none" x="600" y="360"> </text><text fill="#eeeeee" stroke="none" font-family="Arial" font-size="24px" font-style="normal" font-weight="normal" text-decoration="none" x="600" y="390"> </text><text fill="#eeeeee" stroke="none" font-family="Arial" font-size="24px" font-style="normal" font-weight="normal" text-decoration="none" x="600" y="420"> </text><text fill="#eeeeee" stroke="none" font-family="Arial" font-size="24px" font-style="normal" font-weight="normal" text-decoration="none" x="600" y="450"> </text><text fill="#eeeeee" stroke="none" font-family="Arial" font-size="24px" font-style="normal" font-weight="normal" text-decoration="none" x="600" y="480"> </text><text fill="#eeeeee" stroke="none" font-family="Arial" font-size="24px" font-style="normal" font-weight="normal" text-decoration="none" x="600" y="510"> </text><text fill="#eeeeee" stroke="none" font-family="Arial" font-size="24px" font-style="normal" font-weight="normal" text-decoration="none" x="800" y="0"> </text><text fill="#eeeeee" stroke="none" font-family="Arial" font-size="24px" font-style="normal" font-weight="normal" text-decoration="none" x="800" y="30"> </text><text fill="#eeeeee" stroke="none" font-family="Arial" font-size="24px" font-style="normal" font-weight="normal" text-decoration="none" x="800" y="60"> </text><text fill="#eeeeee" stroke="none" font-family="Arial" font-size="24px" font-style="normal" font-weight="normal" text-decoration="none" x="800" y="90"> </text><text fill="#eeeeee" stroke="none" font-family="Arial" font-size="24px" font-style="normal" font-weight="normal" text-decoration="none" x="800" y="120"> </text><text fill="#eeeeee" stroke="none" font-family="Arial" font-size="24px" font-style="normal" font-weight="normal" text-decoration="none" x="800" y="150"> </text><text fill="#eeeeee" stroke="none" font-family="Arial" font-size="24px" font-style="normal" font-weight="normal" text-decoration="none" x="800" y="180"> </text><text fill="#eeeeee" stroke="none" font-family="Arial" font-size="24px" font-style="normal" font-weight="normal" text-decoration="none" x="800" y="210"> </text><text fill="#eeeeee" stroke="none" font-family="Arial" font-size="24px" font-style="normal" font-weight="normal" text-decoration="none" x="800" y="240"> </text><text fill="#eeeeee" stroke="none" font-family="Arial" font-size="24px" font-style="normal" font-weight="normal" text-decoration="none" x="800" y="270"> </text><text fill="#eeeeee" stroke="none" font-family="Arial" font-size="24px" font-style="normal" font-weight="normal" text-decoration="none" x="800" y="300"> </text><text fill="#eeeeee" stroke="none" font-family="Arial" font-size="24px" font-style="normal" font-weight="normal" text-decoration="none" x="800" y="330"> </text><text fill="#eeeeee" stroke="none" font-family="Arial" font-size="24px" font-style="normal" font-weight="normal" text-decoration="none" x="800" y="360"> </text><text fill="#eeeeee" stroke="none" font-family="Arial" font-size="24px" font-style="normal" font-weight="normal" text-decoration="none" x="800" y="390"> </text><text fill="#eeeeee" stroke="none" font-family="Arial" font-size="24px" font-style="normal" font-weight="normal" text-decoration="none" x="800" y="420"> </text><text fill="#eeeeee" stroke="none" font-family="Arial" font-size="24px" font-style="normal" font-weight="normal" text-decoration="none" x="800" y="450"> </text><text fill="#eeeeee" stroke="none" font-family="Arial" font-size="24px" font-style="normal" font-weight="normal" text-decoration="none" x="800" y="480"> </text><text fill="#eeeeee" stroke="none" font-family="Arial" font-size="24px" font-style="normal" font-weight="normal" text-decoration="none" x="800" y="510"> </text><text fill="#eeeeee" stroke="none" font-family="Arial" font-size="24px" font-style="normal" font-weight="normal" text-decoration="none" x="1000" y="0"> </text><text fill="#eeeeee" stroke="none" font-family="Arial" font-size="24px" font-style="normal" font-weight="normal" text-decoration="none" x="1000" y="30"> </text><text fill="#eeeeee" stroke="none" font-family="Arial" font-size="24px" font-style="normal" font-weight="normal" text-decoration="none" x="1000" y="60"> </text><text fill="#eeeeee" stroke="none" font-family="Arial" font-size="24px" font-style="normal" font-weight="normal" text-decoration="none" x="1000" y="90"> </text><text fill="#eeeeee" stroke="none" font-family="Arial" font-size="24px" font-style="normal" font-weight="normal" text-decoration="none" x="1000" y="120"> </text><text fill="#eeeeee" stroke="none" font-family="Arial" font-size="24px" font-style="normal" font-weight="normal" text-decoration="none" x="1000" y="150"> </text><text fill="#eeeeee" stroke="none" font-family="Arial" font-size="24px" font-style="normal" font-weight="normal" text-decoration="none" x="1000" y="180"> </text><text fill="#eeeeee" stroke="none" font-family="Arial" font-size="24px" font-style="normal" font-weight="normal" text-decoration="none" x="1000" y="210"> </text><text fill="#eeeeee" stroke="none" font-family="Arial" font-size="24px" font-style="normal" font-weight="normal" text-decoration="none" x="1000" y="240"> </text><text fill="#eeeeee" stroke="none" font-family="Arial" font-size="24px" font-style="normal" font-weight="normal" text-decoration="none" x="1000" y="270"> </text><text fill="#eeeeee" stroke="none" font-family="Arial" font-size="24px" font-style="normal" font-weight="normal" text-decoration="none" x="1000" y="300"> </text><text fill="#eeeeee" stroke="none" font-family="Arial" font-size="24px" font-style="normal" font-weight="normal" text-decoration="none" x="1000" y="330"> </text><text fill="#eeeeee" stroke="none" font-family="Arial" font-size="24px" font-style="normal" font-weight="normal" text-decoration="none" x="1000" y="360"> </text><text fill="#eeeeee" stroke="none" font-family="Arial" font-size="24px" font-style="normal" font-weight="normal" text-decoration="none" x="1000" y="390"> </text><text fill="#eeeeee" stroke="none" font-family="Arial" font-size="24px" font-style="normal" font-weight="normal" text-decoration="none" x="1000" y="420"> </text><text fill="#eeeeee" stroke="none" font-family="Arial" font-size="24px" font-style="normal" font-weight="normal" text-decoration="none" x="1000" y="450"> </text><text fill="#eeeeee" stroke="none" font-family="Arial" font-size="24px" font-style="normal" font-weight="normal" text-decoration="none" x="1000" y="480"> </text><text fill="#eeeeee" stroke="none" font-family="Arial" font-size="24px" font-style="normal" font-weight="normal" text-decoration="none" x="1000" y="510"> </text><text fill="#eeeeee" stroke="none" font-family="Arial" font-size="24px" font-style="normal" font-weight="normal" text-decoration="none" x="1200" y="0"> </text><text fill="#eeeeee" stroke="none" font-family="Arial" font-size="24px" font-style="normal" font-weight="normal" text-decoration="none" x="1200" y="30"> </text><text fill="#eeeeee" stroke="none" font-family="Arial" font-size="24px" font-style="normal" font-weight="normal" text-decoration="none" x="1200" y="60"> </text><text fill="#eeeeee" stroke="none" font-family="Arial" font-size="24px" font-style="normal" font-weight="normal" text-decoration="none" x="1200" y="90"> </text><text fill="#eeeeee" stroke="none" font-family="Arial" font-size="24px" font-style="normal" font-weight="normal" text-decoration="none" x="1200" y="120"> </text><text fill="#eeeeee" stroke="none" font-family="Arial" font-size="24px" font-style="normal" font-weight="normal" text-decoration="none" x="1200" y="150"> </text><text fill="#eeeeee" stroke="none" font-family="Arial" font-size="24px" font-style="normal" font-weight="normal" text-decoration="none" x="1200" y="180"> </text><text fill="#eeeeee" stroke="none" font-family="Arial" font-size="24px" font-style="normal" font-weight="normal" text-decoration="none" x="1200" y="210"> </text><text fill="#eeeeee" stroke="none" font-family="Arial" font-size="24px" font-style="normal" font-weight="normal" text-decoration="none" x="1200" y="240"> </text><text fill="#eeeeee" stroke="none" font-family="Arial" font-size="24px" font-style="normal" font-weight="normal" text-decoration="none" x="1200" y="270"> </text><text fill="#eeeeee" stroke="none" font-family="Arial" font-size="24px" font-style="normal" font-weight="normal" text-decoration="none" x="1200" y="300"> </text><text fill="#eeeeee" stroke="none" font-family="Arial" font-size="24px" font-style="normal" font-weight="normal" text-decoration="none" x="1200" y="330"> </text><text fill="#eeeeee" stroke="none" font-family="Arial" font-size="24px" font-style="normal" font-weight="normal" text-decoration="none" x="1200" y="360"> </text><text fill="#eeeeee" stroke="none" font-family="Arial" font-size="24px" font-style="normal" font-weight="normal" text-decoration="none" x="1200" y="390"> </text><text fill="#eeeeee" stroke="none" font-family="Arial" font-size="24px" font-style="normal" font-weight="normal" text-decoration="none" x="1200" y="420"> </text><text fill="#eeeeee" stroke="none" font-family="Arial" font-size="24px" font-style="normal" font-weight="normal" text-decoration="none" x="1200" y="450"> </text><text fill="#eeeeee" stroke="none" font-family="Arial" font-size="24px" font-style="normal" font-weight="normal" text-decoration="none" x="1200" y="480"> </text><text fill="#eeeeee" stroke="none" font-family="Arial" font-size="24px" font-style="normal" font-weight="normal" text-decoration="none" x="1200" y="510"> </text><g transform="translate(-54,-30) scale(1,1)"><path fill="none" stroke="#000000" d="M 64 40 L 1248 40 L 1248 544 L 64 544 L 64 40" stroke-miterlimit="10"/></g><g transform="translate(-54,-30) scale(1,1)"><path fill="#ffffff" stroke="none" d="M 64 40 L 64 62 L 212.9580078125 62 L 223.9580078125 51 L 223.9580078125 40 L 64 40"/></g><g transform="translate(-54,-30) scale(1,1)"><path fill="none" stroke="#000000" d="M 64 40 L 64 62 L 212.9580078125 62 L 223.9580078125 51 L 223.9580078125 40 L 64 40 L 64 40" stroke-miterlimit="10"/></g><g transform="translate(-54,-30) scale(1,1)"><g><path fill="none" stroke="none"/><text fill="#000000" stroke="none" font-family="Arial" font-size="13px" font-style="normal" font-weight="normal" text-decoration="none" x="95.9599609375" y="57.5">PapasPizzaService</text></g></g><g transform="translate(-54,-30) scale(1,1)"><g><path fill="none" stroke="none"/><text fill="#000000" stroke="none" font-family="Arial" font-size="13px" font-style="normal" font-weight="bold" text-decoration="none" x="69" y="57.5">pkg</text></g></g><g transform="translate(-54,-30) scale(1,1)"><rect fill="#C0C0C0" stroke="none" x="967" y="407" width="102.40000000000009" height="15" opacity="0.2"/></g><g transform="translate(-54,-30) scale(1,1)"><rect fill="#C0C0C0" stroke="none" x="967" y="421" width="256" height="114" opacity="0.2"/></g><g transform="translate(-54,-30) scale(1,1)"><rect fill="#ffffff" stroke="none" x="960" y="415" width="256" height="113"/></g><g transform="translate(-54,-30) scale(1,1)"><path fill="none" stroke="#000000" d="M 960 415 L 1216 415 L 1216 528 L 960 528 L 960 415 Z Z" stroke-miterlimit="10"/></g><g transform="translate(-54,-30) scale(1,1)"><rect fill="#ffffff" stroke="none" x="960" y="400" width="102.40000000000009" height="15"/></g><g transform="translate(-54,-30) scale(1,1)"><path fill="none" stroke="#000000" d="M 960 400 L 1062.4 400 L 1062.4 415 L 960 415 L 960 400 Z Z" stroke-miterlimit="10"/></g><g transform="translate(-54,-30) scale(1,1)"><rect fill="#ffffff" stroke="none" x="960" y="414" width="256" height="114"/></g><g transform="translate(-54,-30) scale(1,1)"><path fill="none" stroke="#000000" d="M 960 414 L 1216 414 L 1216 528 L 960 528 L 960 414 Z Z" stroke-miterlimit="10"/></g><g transform="translate(-54,-30) scale(1,1)"><g><path fill="none" stroke="none"/><text fill="#000000" stroke="none" font-family="Arial" font-size="13px" font-style="normal" font-weight="bold" text-decoration="none" x="1057.6455078125" y="434.5">Salespoint</text></g></g><g transform="translate(-54,-30) scale(1,1)"><rect fill="#C0C0C0" stroke="none" x="967" y="119" width="102.40000000000009" height="15" opacity="0.2"/></g><g transform="translate(-54,-30) scale(1,1)"><rect fill="#C0C0C0" stroke="none" x="967" y="133" width="256" height="250" opacity="0.2"/></g><g transform="translate(-54,-30) scale(1,1)"><rect fill="#ffffff" stroke="none" x="960" y="127" width="256" height="249"/></g><g transform="translate(-54,-30) scale(1,1)"><path fill="none" stroke="#000000" d="M 960 127 L 1216 127 L 1216 376 L 960 376 L 960 127 Z Z" stroke-miterlimit="10"/></g><g transform="translate(-54,-30) scale(1,1)"><rect fill="#ffffff" stroke="none" x="960" y="112" width="102.40000000000009" height="15"/></g><g transform="translate(-54,-30) scale(1,1)"><path fill="none" stroke="#000000" d="M 960 112 L 1062.4 112 L 1062.4 127 L 960 127 L 960 112 Z Z" stroke-miterlimit="10"/></g><g transform="translate(-54,-30) scale(1,1)"><rect fill="#ffffff" stroke="none" x="960" y="126" width="256" height="250"/></g><g transform="translate(-54,-30) scale(1,1)"><path fill="none" stroke="#000000" d="M 960 126 L 1216 126 L 1216 376 L 960 376 L 960 126 Z Z" stroke-miterlimit="10"/></g><g transform="translate(-54,-30) scale(1,1)"><g><path fill="none" stroke="none"/><text fill="#000000" stroke="none" font-family="Arial" font-size="13px" font-style="normal" font-weight="bold" text-decoration="none" x="1069.2109375" y="146.5">Spring</text></g></g><g transform="translate(-54,-30) scale(1,1)"><rect fill="#C0C0C0" stroke="none" x="87" y="127" width="214.39999999999998" height="15" opacity="0.2"/></g><g transform="translate(-54,-30) scale(1,1)"><rect fill="#C0C0C0" stroke="none" x="87" y="141" width="536" height="386" opacity="0.2"/></g><g transform="translate(-54,-30) scale(1,1)"><rect fill="#ffffff" stroke="none" x="80" y="135" width="536" height="385"/></g><g transform="translate(-54,-30) scale(1,1)"><path fill="none" stroke="#000000" d="M 80 135 L 616 135 L 616 520 L 80 520 L 80 135 Z Z" stroke-miterlimit="10"/></g><g transform="translate(-54,-30) scale(1,1)"><rect fill="#ffffff" stroke="none" x="80" y="120" width="214.39999999999998" height="15"/></g><g transform="translate(-54,-30) scale(1,1)"><path fill="none" stroke="#000000" d="M 80 120 L 294.4 120 L 294.4 135 L 80 135 L 80 120 Z Z" stroke-miterlimit="10"/></g><g transform="translate(-54,-30) scale(1,1)"><rect fill="#ffffff" stroke="none" x="80" y="134" width="536" height="386"/></g><g transform="translate(-54,-30) scale(1,1)"><path fill="none" stroke="#000000" d="M 80 134 L 616 134 L 616 520 L 80 520 L 80 134 Z Z" stroke-miterlimit="10"/></g><g transform="translate(-54,-30) scale(1,1)"><g><path fill="none" stroke="none"/><text fill="#000000" stroke="none" font-family="Arial" font-size="13px" font-style="normal" font-weight="bold" text-decoration="none" x="316.201416015625" y="154.5">Application</text></g></g><g transform="translate(-54,-30) scale(1,1)"><rect fill="#C0C0C0" stroke="none" x="199" y="183" width="238.48681640625" height="87" opacity="0.2"/></g><g transform="translate(-54,-30) scale(1,1)"><rect fill="#ffffff" stroke="none" x="192" y="176" width="238.48681640625" height="87"/></g><g transform="translate(-54,-30) scale(1,1)"><path fill="none" stroke="#000000" d="M 192 176 L 430.48681640625 176 L 430.48681640625 263 L 192 263 L 192 176 Z Z" stroke-miterlimit="10"/></g><g transform="translate(-54,-30) scale(1,1)"><path fill="none" stroke="#000000" d="M 192 201 L 430.48681640625 201" stroke-miterlimit="10"/></g><g transform="translate(-54,-30) scale(1,1)"><path fill="none" stroke="#000000" d="M 192 239 L 430.48681640625 239" stroke-miterlimit="10"/></g><g transform="translate(-54,-30) scale(1,1)"><g><path fill="none" stroke="none"/><text fill="#000000" stroke="none" font-family="Arial" font-size="13px" font-style="normal" font-weight="bold" text-decoration="none" x="279.44482421875" y="195.5">Application</text></g></g><g transform="translate(-54,-30) scale(1,1)"><g><path fill="none" stroke="none"/><text fill="#000000" stroke="none" font-family="Arial" font-size="13px" font-style="normal" font-weight="normal" text-decoration="none" x="197" y="218.5">-LOGIN_ROUTE: String = "login"</text></g></g><g transform="translate(-54,-30) scale(1,1)"><g><path fill="none" stroke="none"/><text fill="#000000" stroke="none" font-family="Arial" font-size="13px" font-style="normal" font-weight="normal" text-decoration="none" x="197" y="233.5">+Port1</text></g></g><g transform="translate(-54,-30) scale(1,1)"><g><path fill="none" stroke="none"/><text fill="#000000" stroke="none" font-family="Arial" font-size="13px" font-style="normal" font-weight="normal" text-decoration="none" x="197" y="256.5">+main(args: String): void</text></g></g><g transform="translate(-54,-30) scale(1,1)"><rect fill="#C0C0C0" stroke="none" x="143" y="327" width="346.29541015625" height="57" opacity="0.2"/></g><g transform="translate(-54,-30) scale(1,1)"><rect fill="#ffffff" stroke="none" x="136" y="320" width="346.29541015625" height="57"/></g><g transform="translate(-54,-30) scale(1,1)"><path fill="none" stroke="#000000" d="M 136 320 L 482.29541015625 320 L 482.29541015625 377 L 136 377 L 136 320 Z Z" stroke-miterlimit="10"/></g><g transform="translate(-54,-30) scale(1,1)"><path fill="none" stroke="#000000" d="M 136 345 L 482.29541015625 345" stroke-miterlimit="10"/></g><g transform="translate(-54,-30) scale(1,1)"><path fill="none" stroke="#000000" d="M 136 355 L 482.29541015625 355" stroke-miterlimit="10"/></g><g transform="translate(-54,-30) scale(1,1)"><g><path fill="none" stroke="none"/><text fill="#000000" stroke="none" font-family="Arial" font-size="13px" font-style="normal" font-weight="bold" text-decoration="none" x="201.237548828125" y="339.5">PapasPizzaServiceWebConfiguration</text></g></g><g transform="translate(-54,-30) scale(1,1)"><g><path fill="none" stroke="none"/><text fill="#000000" stroke="none" font-family="Arial" font-size="13px" font-style="normal" font-weight="normal" text-decoration="none" x="141" y="372.5">+addViewControllers(registy: ViewControllerRegistry): void</text></g></g><g transform="translate(-54,-30) scale(1,1)"><rect fill="#C0C0C0" stroke="none" x="175" y="423" width="345.29541015625" height="80" opacity="0.2"/></g><g transform="translate(-54,-30) scale(1,1)"><rect fill="#ffffff" stroke="none" x="168" y="416" width="345.29541015625" height="80"/></g><g transform="translate(-54,-30) scale(1,1)"><path fill="none" stroke="#000000" d="M 168 416 L 513.29541015625 416 L 513.29541015625 496 L 168 496 L 168 416 Z Z" stroke-miterlimit="10"/></g><g transform="translate(-54,-30) scale(1,1)"><path fill="none" stroke="#000000" d="M 168 441 L 513.29541015625 441" stroke-miterlimit="10"/></g><g transform="translate(-54,-30) scale(1,1)"><path fill="none" stroke="#000000" d="M 168 451 L 513.29541015625 451" stroke-miterlimit="10"/></g><g transform="translate(-54,-30) scale(1,1)"><g><path fill="none" stroke="none"/><text fill="#000000" stroke="none" font-family="Arial" font-size="13px" font-style="normal" font-weight="bold" text-decoration="none" x="265.256591796875" y="435.5">WebSecurityConfiguration</text></g></g><g transform="translate(-54,-30) scale(1,1)"><g><path fill="none" stroke="none"/><text fill="#000000" stroke="none" font-family="Arial" font-size="13px" font-style="normal" font-weight="normal" text-decoration="none" x="173" y="468.5">+configure(http: HttpSecurity): void</text></g></g><g transform="translate(-54,-30) scale(1,1)"><path fill="none" stroke="#000000" d="M 309 319 L 310 264" stroke-miterlimit="10"/></g><g transform="translate(-54,-30) scale(1,1)"><path fill="#FFFFFF" stroke="none" d="M 302.8727483043274 270.9988432619933 C 302.8727483043274 267.13284966199325 306.00675470432736 263.9988432619933 309.8727483043274 263.9988432619933 C 313.7387419043274 263.9988432619933 316.8727483043274 267.13284966199325 316.8727483043274 270.9988432619933 C 316.8727483043274 274.8648368619933 313.7387419043274 277.9988432619933 309.8727483043274 277.9988432619933 C 306.00675470432736 277.9988432619933 302.8727483043274 274.8648368619933 302.8727483043274 270.9988432619933 Z"/></g><g transform="translate(-54,-30) scale(1,1)"><path fill="none" stroke="#000000" d="M 302.8727483043274 270.9988432619933 C 302.8727483043274 267.13284966199325 306.00675470432736 263.9988432619933 309.8727483043274 263.9988432619933 C 313.7387419043274 263.9988432619933 316.8727483043274 267.13284966199325 316.8727483043274 270.9988432619933 C 316.8727483043274 274.8648368619933 313.7387419043274 277.9988432619933 309.8727483043274 277.9988432619933 C 306.00675470432736 277.9988432619933 302.8727483043274 274.8648368619933 302.8727483043274 270.9988432619933 Z" stroke-miterlimit="10"/></g><g transform="translate(-54,-30) scale(1,1)"><path fill="none" stroke="#000000" d="M 309.7454966086548 277.99768652398654 L 310 264" stroke-miterlimit="10"/></g><g transform="translate(-54,-30) scale(1,1)"><path fill="none" stroke="#000000" d="M 316.87159156632066 271.1260949576659 L 302.8739050423341 270.87159156632066" stroke-miterlimit="10"/></g><g transform="translate(-54,-30) scale(1,1)"><path fill="none" stroke="#000000" d="M 167 456 L 112 456 L 112 216 L 191 217" stroke-miterlimit="10"/></g><g transform="translate(-54,-30) scale(1,1)"><path fill="#FFFFFF" stroke="none" d="M 177.00056074017795 216.91139950304023 C 177.00056074017795 213.04540590304023 180.13456714017795 209.91139950304023 184.00056074017795 209.91139950304023 C 187.86655434017794 209.91139950304023 191.00056074017795 213.04540590304023 191.00056074017795 216.91139950304023 C 191.00056074017795 220.77739310304023 187.86655434017794 223.91139950304023 184.00056074017795 223.91139950304023 C 180.13456714017795 223.91139950304023 177.00056074017795 220.77739310304023 177.00056074017795 216.91139950304023 Z"/></g><g transform="translate(-54,-30) scale(1,1)"><path fill="none" stroke="#000000" d="M 177.00056074017795 216.91139950304023 C 177.00056074017795 213.04540590304023 180.13456714017795 209.91139950304023 184.00056074017795 209.91139950304023 C 187.86655434017794 209.91139950304023 191.00056074017795 213.04540590304023 191.00056074017795 216.91139950304023 C 191.00056074017795 220.77739310304023 187.86655434017794 223.91139950304023 184.00056074017795 223.91139950304023 C 180.13456714017795 223.91139950304023 177.00056074017795 220.77739310304023 177.00056074017795 216.91139950304023 Z" stroke-miterlimit="10"/></g><g transform="translate(-54,-30) scale(1,1)"><path fill="none" stroke="#000000" d="M 177.00112148035586 216.82279900608046 L 191 217" stroke-miterlimit="10"/></g><g transform="translate(-54,-30) scale(1,1)"><path fill="none" stroke="#000000" d="M 183.91196024321818 223.91083876286228 L 184.08916123713772 209.91196024321818" stroke-miterlimit="10"/></g><g transform="translate(-54,-30) scale(1,1)"><rect fill="#C0C0C0" stroke="none" x="1023" y="159" width="152" height="44" opacity="0.2"/></g><g transform="translate(-54,-30) scale(1,1)"><rect fill="#ffffff" stroke="none" x="1016" y="152" width="152" height="44"/></g><g transform="translate(-54,-30) scale(1,1)"><path fill="none" stroke="#000000" d="M 1016 152 L 1168 152 L 1168 196 L 1016 196 L 1016 152 Z Z" stroke-miterlimit="10"/></g><g transform="translate(-54,-30) scale(1,1)"><path fill="none" stroke="#000000" d="M 1016 177 L 1168 177" stroke-miterlimit="10"/></g><g transform="translate(-54,-30) scale(1,1)"><path fill="none" stroke="#000000" d="M 1016 187 L 1168 187" stroke-miterlimit="10"/></g><g transform="translate(-54,-30) scale(1,1)"><g><path fill="none" stroke="none"/><text fill="#000000" stroke="none" font-family="Arial" font-size="13px" font-style="normal" font-weight="bold" text-decoration="none" x="1041.412353515625" y="171.5">SpringApplication</text></g></g><g transform="translate(-54,-30) scale(1,1)"><rect fill="#C0C0C0" stroke="none" x="1023" y="215" width="152.5205078125" height="44" opacity="0.2"/></g><g transform="translate(-54,-30) scale(1,1)"><rect fill="#ffffff" stroke="none" x="1016" y="208" width="152.5205078125" height="44"/></g><g transform="translate(-54,-30) scale(1,1)"><path fill="none" stroke="#000000" d="M 1016 208 L 1168.5205078125 208 L 1168.5205078125 252 L 1016 252 L 1016 208 Z Z" stroke-miterlimit="10"/></g><g transform="translate(-54,-30) scale(1,1)"><path fill="none" stroke="#000000" d="M 1016 233 L 1168.5205078125 233" stroke-miterlimit="10"/></g><g transform="translate(-54,-30) scale(1,1)"><path fill="none" stroke="#000000" d="M 1016 243 L 1168.5205078125 243" stroke-miterlimit="10"/></g><g transform="translate(-54,-30) scale(1,1)"><g><path fill="none" stroke="none"/><text fill="#000000" stroke="none" font-family="Arial" font-size="13px" font-style="normal" font-weight="bold" text-decoration="none" x="1026.273193359375" y="227.5">ViewControllerRegistry</text></g></g><g transform="translate(-54,-30) scale(1,1)"><rect fill="#C0C0C0" stroke="none" x="1023" y="327" width="152" height="44" opacity="0.2"/></g><g transform="translate(-54,-30) scale(1,1)"><rect fill="#ffffff" stroke="none" x="1016" y="320" width="152" height="44"/></g><g transform="translate(-54,-30) scale(1,1)"><path fill="none" stroke="#000000" d="M 1016 320 L 1168 320 L 1168 364 L 1016 364 L 1016 320 Z Z" stroke-miterlimit="10"/></g><g transform="translate(-54,-30) scale(1,1)"><path fill="none" stroke="#000000" d="M 1016 345 L 1168 345" stroke-miterlimit="10"/></g><g transform="translate(-54,-30) scale(1,1)"><path fill="none" stroke="#000000" d="M 1016 355 L 1168 355" stroke-miterlimit="10"/></g><g transform="translate(-54,-30) scale(1,1)"><g><path fill="none" stroke="none"/><text fill="#000000" stroke="none" font-family="Arial" font-size="13px" font-style="normal" font-weight="bold" text-decoration="none" x="1056.59912109375" y="339.5">HttpSecurity</text></g></g><g transform="translate(-54,-30) scale(1,1)"><rect fill="#C0C0C0" stroke="none" x="991" y="463" width="211.24267578125" height="44" opacity="0.2"/></g><g transform="translate(-54,-30) scale(1,1)"><rect fill="#ffffff" stroke="none" x="984" y="456" width="211.24267578125" height="44"/></g><g transform="translate(-54,-30) scale(1,1)"><path fill="none" stroke="#000000" d="M 984 456 L 1195.24267578125 456 L 1195.24267578125 500 L 984 500 L 984 456 Z Z" stroke-miterlimit="10"/></g><g transform="translate(-54,-30) scale(1,1)"><path fill="none" stroke="#000000" d="M 984 481 L 1195.24267578125 481" stroke-miterlimit="10"/></g><g transform="translate(-54,-30) scale(1,1)"><path fill="none" stroke="#000000" d="M 984 491 L 1195.24267578125 491" stroke-miterlimit="10"/></g><g transform="translate(-54,-30) scale(1,1)"><g><path fill="none" stroke="none"/><text fill="#000000" stroke="none" font-family="Arial" font-size="13px" font-style="normal" font-weight="bold" text-decoration="none" x="997.123291015625" y="475.5">SalespointSecurityConfiguration</text></g></g><g transform="translate(-54,-30) scale(1,1)"><path fill="none" stroke="#000000" d="M 430 212 L 712 212 L 712 168 L 1016 168" stroke-miterlimit="10" stroke-dasharray="3"/></g><g transform="translate(-54,-30) scale(1,1)"><path fill="none" stroke="#000000" d="M 1005.8373251423759 172.209517756016 L 1016 168 L 1005.8373251423758 163.790482243984" stroke-miterlimit="10"/></g><g transform="translate(-54,-30) scale(1,1)"><g><path fill="none" stroke="none"/><text fill="#000000" stroke="none" font-family="Arial" font-size="13px" font-style="normal" font-weight="normal" text-decoration="none" x="675.680908203125" y="196.5">#use</text></g></g><g transform="translate(-54,-30) scale(1,1)"><path fill="none" stroke="#000000" d="M 482 336 L 728 336 L 728 232 L 1016 232" stroke-miterlimit="10" stroke-dasharray="3"/></g><g transform="translate(-54,-30) scale(1,1)"><path fill="none" stroke="#000000" d="M 1005.8373251423759 236.209517756016 L 1016 232 L 1005.8373251423758 227.790482243984" stroke-miterlimit="10"/></g><g transform="translate(-54,-30) scale(1,1)"><g><path fill="none" stroke="none"/><text fill="#000000" stroke="none" font-family="Arial" font-size="13px" font-style="normal" font-weight="normal" text-decoration="none" x="698.680908203125" y="289.5">#use</text></g></g><g transform="translate(-54,-30) scale(1,1)"><rect fill="#C0C0C0" stroke="none" x="1023" y="271" width="152" height="48" opacity="0.2"/></g><g transform="translate(-54,-30) scale(1,1)"><rect fill="#ffffff" stroke="none" x="1016" y="264" width="152" height="48"/></g><g transform="translate(-54,-30) scale(1,1)"><path fill="none" stroke="#000000" d="M 1016 264 L 1168 264 L 1168 312 L 1016 312 L 1016 264 Z Z" stroke-miterlimit="10"/></g><g transform="translate(-54,-30) scale(1,1)"><g><path fill="none" stroke="none"/><text fill="#000000" stroke="none" font-family="Arial" font-size="13px" font-style="normal" font-weight="normal" text-decoration="none" x="1059.839599609375" y="281.5">«interface»</text></g></g><g transform="translate(-54,-30) scale(1,1)"><g><path fill="none" stroke="none"/><text fill="#000000" stroke="none" font-family="Arial" font-size="13px" font-style="normal" font-weight="bold" text-decoration="none" x="1036.48974609375" y="296.5">WebMvcConfigurer</text></g></g><g transform="translate(-54,-30) scale(1,1)"><path fill="none" stroke="#000000" d="M 482 368 L 752 368 L 752 288 L 1016 288" stroke-miterlimit="10" stroke-dasharray="3"/></g><g transform="translate(-54,-30) scale(1,1)"><path fill="#FFFFFF" stroke="none" d="M 995.6746502847517 296.419035512032 L 1016 288 L 995.6746502847517 279.580964487968"/></g><g transform="translate(-54,-30) scale(1,1)"><path fill="none" stroke="#000000" d="M 995.6746502847517 296.419035512032 L 1016 288 L 995.6746502847517 279.580964487968 L 995.6746502847517 296.419035512032" stroke-miterlimit="10"/></g><g transform="translate(-54,-30) scale(1,1)"><path fill="none" stroke="#000000" d="M 513 430 L 784 430 L 784 336 L 1016 336" stroke-miterlimit="10" stroke-dasharray="3"/></g><g transform="translate(-54,-30) scale(1,1)"><path fill="none" stroke="#000000" d="M 1005.8373251423759 340.209517756016 L 1016 336 L 1005.8373251423758 331.790482243984" stroke-miterlimit="10"/></g><g transform="translate(-54,-30) scale(1,1)"><g><path fill="none" stroke="none"/><text fill="#000000" stroke="none" font-family="Arial" font-size="13px" font-style="normal" font-weight="normal" text-decoration="none" x="754.680908203125" y="388.5">#use</text></g></g><g transform="translate(-54,-30) scale(1,1)"><path fill="none" stroke="#000000" d="M 513 472 L 984 472" stroke-miterlimit="10"/></g><g transform="translate(-54,-30) scale(1,1)"><path fill="#FFFFFF" stroke="none" d="M 963.6746502847517 480.419035512032 L 984 472 L 963.6746502847517 463.580964487968"/></g><g transform="translate(-54,-30) scale(1,1)"><path fill="none" stroke="#000000" d="M 963.6746502847517 480.419035512032 L 984 472 L 963.6746502847517 463.580964487968 L 963.6746502847517 480.419035512032" stroke-miterlimit="10"/></g></g></svg>