<svg version="1.1" xmlns="http://www.w3.org/2000/svg" xmlns:xlink="http://www.w3.org/1999/xlink" width="1244" height="652">
	<defs/>
	<g>
		<text fill="#eeeeee" stroke="none" font-family="Arial" font-size="24px" font-style="normal" font-weight="normal" text-decoration="none" x="0" y="0"></text>
		<text fill="#eeeeee" stroke="none" font-family="Arial" font-size="24px" font-style="normal" font-weight="normal" text-decoration="none" x="0" y="30"></text>
		<text fill="#eeeeee" stroke="none" font-family="Arial" font-size="24px" font-style="normal" font-weight="normal" text-decoration="none" x="0" y="60"></text>
		<text fill="#eeeeee" stroke="none" font-family="Arial" font-size="24px" font-style="normal" font-weight="normal" text-decoration="none" x="0" y="90"></text>
		<text fill="#eeeeee" stroke="none" font-family="Arial" font-size="24px" font-style="normal" font-weight="normal" text-decoration="none" x="0" y="120"></text>
		<text fill="#eeeeee" stroke="none" font-family="Arial" font-size="24px" font-style="normal" font-weight="normal" text-decoration="none" x="0" y="150"></text>
		<text fill="#eeeeee" stroke="none" font-family="Arial" font-size="24px" font-style="normal" font-weight="normal" text-decoration="none" x="0" y="180"></text>
		<text fill="#eeeeee" stroke="none" font-family="Arial" font-size="24px" font-style="normal" font-weight="normal" text-decoration="none" x="0" y="210"></text>
		<text fill="#eeeeee" stroke="none" font-family="Arial" font-size="24px" font-style="normal" font-weight="normal" text-decoration="none" x="0" y="240"></text>
		<text fill="#eeeeee" stroke="none" font-family="Arial" font-size="24px" font-style="normal" font-weight="normal" text-decoration="none" x="0" y="270"></text>
		<text fill="#eeeeee" stroke="none" font-family="Arial" font-size="24px" font-style="normal" font-weight="normal" text-decoration="none" x="0" y="300"></text>
		<text fill="#eeeeee" stroke="none" font-family="Arial" font-size="24px" font-style="normal" font-weight="normal" text-decoration="none" x="0" y="330"></text>
		<text fill="#eeeeee" stroke="none" font-family="Arial" font-size="24px" font-style="normal" font-weight="normal" text-decoration="none" x="0" y="360"></text>
		<text fill="#eeeeee" stroke="none" font-family="Arial" font-size="24px" font-style="normal" font-weight="normal" text-decoration="none" x="0" y="390"></text>
		<text fill="#eeeeee" stroke="none" font-family="Arial" font-size="24px" font-style="normal" font-weight="normal" text-decoration="none" x="0" y="420"></text>
		<text fill="#eeeeee" stroke="none" font-family="Arial" font-size="24px" font-style="normal" font-weight="normal" text-decoration="none" x="0" y="450"></text>
		<text fill="#eeeeee" stroke="none" font-family="Arial" font-size="24px" font-style="normal" font-weight="normal" text-decoration="none" x="0" y="480"></text>
		<text fill="#eeeeee" stroke="none" font-family="Arial" font-size="24px" font-style="normal" font-weight="normal" text-decoration="none" x="0" y="510"></text>
		<text fill="#eeeeee" stroke="none" font-family="Arial" font-size="24px" font-style="normal" font-weight="normal" text-decoration="none" x="0" y="540"></text>
		<text fill="#eeeeee" stroke="none" font-family="Arial" font-size="24px" font-style="normal" font-weight="normal" text-decoration="none" x="0" y="570"></text>
		<text fill="#eeeeee" stroke="none" font-family="Arial" font-size="24px" font-style="normal" font-weight="normal" text-decoration="none" x="0" y="600"></text>
		<text fill="#eeeeee" stroke="none" font-family="Arial" font-size="24px" font-style="normal" font-weight="normal" text-decoration="none" x="0" y="630"></text>
		<text fill="#eeeeee" stroke="none" font-family="Arial" font-size="24px" font-style="normal" font-weight="normal" text-decoration="none" x="200" y="0"></text>
		<text fill="#eeeeee" stroke="none" font-family="Arial" font-size="24px" font-style="normal" font-weight="normal" text-decoration="none" x="200" y="30"></text>
		<text fill="#eeeeee" stroke="none" font-family="Arial" font-size="24px" font-style="normal" font-weight="normal" text-decoration="none" x="200" y="60"></text>
		<text fill="#eeeeee" stroke="none" font-family="Arial" font-size="24px" font-style="normal" font-weight="normal" text-decoration="none" x="200" y="90"></text>
		<text fill="#eeeeee" stroke="none" font-family="Arial" font-size="24px" font-style="normal" font-weight="normal" text-decoration="none" x="200" y="120"></text>
		<text fill="#eeeeee" stroke="none" font-family="Arial" font-size="24px" font-style="normal" font-weight="normal" text-decoration="none" x="200" y="150"></text>
		<text fill="#eeeeee" stroke="none" font-family="Arial" font-size="24px" font-style="normal" font-weight="normal" text-decoration="none" x="200" y="180"></text>
		<text fill="#eeeeee" stroke="none" font-family="Arial" font-size="24px" font-style="normal" font-weight="normal" text-decoration="none" x="200" y="210"></text>
		<text fill="#eeeeee" stroke="none" font-family="Arial" font-size="24px" font-style="normal" font-weight="normal" text-decoration="none" x="200" y="240"></text>
		<text fill="#eeeeee" stroke="none" font-family="Arial" font-size="24px" font-style="normal" font-weight="normal" text-decoration="none" x="200" y="270"></text>
		<text fill="#eeeeee" stroke="none" font-family="Arial" font-size="24px" font-style="normal" font-weight="normal" text-decoration="none" x="200" y="300"></text>
		<text fill="#eeeeee" stroke="none" font-family="Arial" font-size="24px" font-style="normal" font-weight="normal" text-decoration="none" x="200" y="330"></text>
		<text fill="#eeeeee" stroke="none" font-family="Arial" font-size="24px" font-style="normal" font-weight="normal" text-decoration="none" x="200" y="360"></text>
		<text fill="#eeeeee" stroke="none" font-family="Arial" font-size="24px" font-style="normal" font-weight="normal" text-decoration="none" x="200" y="390"></text>
		<text fill="#eeeeee" stroke="none" font-family="Arial" font-size="24px" font-style="normal" font-weight="normal" text-decoration="none" x="200" y="420"></text>
		<text fill="#eeeeee" stroke="none" font-family="Arial" font-size="24px" font-style="normal" font-weight="normal" text-decoration="none" x="200" y="450"></text>
		<text fill="#eeeeee" stroke="none" font-family="Arial" font-size="24px" font-style="normal" font-weight="normal" text-decoration="none" x="200" y="480"></text>
		<text fill="#eeeeee" stroke="none" font-family="Arial" font-size="24px" font-style="normal" font-weight="normal" text-decoration="none" x="200" y="510"></text>
		<text fill="#eeeeee" stroke="none" font-family="Arial" font-size="24px" font-style="normal" font-weight="normal" text-decoration="none" x="200" y="540"></text>
		<text fill="#eeeeee" stroke="none" font-family="Arial" font-size="24px" font-style="normal" font-weight="normal" text-decoration="none" x="200" y="570"></text>
		<text fill="#eeeeee" stroke="none" font-family="Arial" font-size="24px" font-style="normal" font-weight="normal" text-decoration="none" x="200" y="600"></text>
		<text fill="#eeeeee" stroke="none" font-family="Arial" font-size="24px" font-style="normal" font-weight="normal" text-decoration="none" x="200" y="630"></text>
		<text fill="#eeeeee" stroke="none" font-family="Arial" font-size="24px" font-style="normal" font-weight="normal" text-decoration="none" x="400" y="0"></text>
		<text fill="#eeeeee" stroke="none" font-family="Arial" font-size="24px" font-style="normal" font-weight="normal" text-decoration="none" x="400" y="30"></text>
		<text fill="#eeeeee" stroke="none" font-family="Arial" font-size="24px" font-style="normal" font-weight="normal" text-decoration="none" x="400" y="60"></text>
		<text fill="#eeeeee" stroke="none" font-family="Arial" font-size="24px" font-style="normal" font-weight="normal" text-decoration="none" x="400" y="90"></text>
		<text fill="#eeeeee" stroke="none" font-family="Arial" font-size="24px" font-style="normal" font-weight="normal" text-decoration="none" x="400" y="120"></text>
		<text fill="#eeeeee" stroke="none" font-family="Arial" font-size="24px" font-style="normal" font-weight="normal" text-decoration="none" x="400" y="150"></text>
		<text fill="#eeeeee" stroke="none" font-family="Arial" font-size="24px" font-style="normal" font-weight="normal" text-decoration="none" x="400" y="180"></text>
		<text fill="#eeeeee" stroke="none" font-family="Arial" font-size="24px" font-style="normal" font-weight="normal" text-decoration="none" x="400" y="210"></text>
		<text fill="#eeeeee" stroke="none" font-family="Arial" font-size="24px" font-style="normal" font-weight="normal" text-decoration="none" x="400" y="240"></text>
		<text fill="#eeeeee" stroke="none" font-family="Arial" font-size="24px" font-style="normal" font-weight="normal" text-decoration="none" x="400" y="270"></text>
		<text fill="#eeeeee" stroke="none" font-family="Arial" font-size="24px" font-style="normal" font-weight="normal" text-decoration="none" x="400" y="300"></text>
		<text fill="#eeeeee" stroke="none" font-family="Arial" font-size="24px" font-style="normal" font-weight="normal" text-decoration="none" x="400" y="330"></text>
		<text fill="#eeeeee" stroke="none" font-family="Arial" font-size="24px" font-style="normal" font-weight="normal" text-decoration="none" x="400" y="360"></text>
		<text fill="#eeeeee" stroke="none" font-family="Arial" font-size="24px" font-style="normal" font-weight="normal" text-decoration="none" x="400" y="390"></text>
		<text fill="#eeeeee" stroke="none" font-family="Arial" font-size="24px" font-style="normal" font-weight="normal" text-decoration="none" x="400" y="420"></text>
		<text fill="#eeeeee" stroke="none" font-family="Arial" font-size="24px" font-style="normal" font-weight="normal" text-decoration="none" x="400" y="450"></text>
		<text fill="#eeeeee" stroke="none" font-family="Arial" font-size="24px" font-style="normal" font-weight="normal" text-decoration="none" x="400" y="480"></text>
		<text fill="#eeeeee" stroke="none" font-family="Arial" font-size="24px" font-style="normal" font-weight="normal" text-decoration="none" x="400" y="510"></text>
		<text fill="#eeeeee" stroke="none" font-family="Arial" font-size="24px" font-style="normal" font-weight="normal" text-decoration="none" x="400" y="540"></text>
		<text fill="#eeeeee" stroke="none" font-family="Arial" font-size="24px" font-style="normal" font-weight="normal" text-decoration="none" x="400" y="570"></text>
		<text fill="#eeeeee" stroke="none" font-family="Arial" font-size="24px" font-style="normal" font-weight="normal" text-decoration="none" x="400" y="600"></text>
		<text fill="#eeeeee" stroke="none" font-family="Arial" font-size="24px" font-style="normal" font-weight="normal" text-decoration="none" x="400" y="630"></text>
		<text fill="#eeeeee" stroke="none" font-family="Arial" font-size="24px" font-style="normal" font-weight="normal" text-decoration="none" x="600" y="0"></text>
		<text fill="#eeeeee" stroke="none" font-family="Arial" font-size="24px" font-style="normal" font-weight="normal" text-decoration="none" x="600" y="30"></text>
		<text fill="#eeeeee" stroke="none" font-family="Arial" font-size="24px" font-style="normal" font-weight="normal" text-decoration="none" x="600" y="60"></text>
		<text fill="#eeeeee" stroke="none" font-family="Arial" font-size="24px" font-style="normal" font-weight="normal" text-decoration="none" x="600" y="90"></text>
		<text fill="#eeeeee" stroke="none" font-family="Arial" font-size="24px" font-style="normal" font-weight="normal" text-decoration="none" x="600" y="120"></text>
		<text fill="#eeeeee" stroke="none" font-family="Arial" font-size="24px" font-style="normal" font-weight="normal" text-decoration="none" x="600" y="150"></text>
		<text fill="#eeeeee" stroke="none" font-family="Arial" font-size="24px" font-style="normal" font-weight="normal" text-decoration="none" x="600" y="180"></text>
		<text fill="#eeeeee" stroke="none" font-family="Arial" font-size="24px" font-style="normal" font-weight="normal" text-decoration="none" x="600" y="210"></text>
		<text fill="#eeeeee" stroke="none" font-family="Arial" font-size="24px" font-style="normal" font-weight="normal" text-decoration="none" x="600" y="240"></text>
		<text fill="#eeeeee" stroke="none" font-family="Arial" font-size="24px" font-style="normal" font-weight="normal" text-decoration="none" x="600" y="270"></text>
		<text fill="#eeeeee" stroke="none" font-family="Arial" font-size="24px" font-style="normal" font-weight="normal" text-decoration="none" x="600" y="300"></text>
		<text fill="#eeeeee" stroke="none" font-family="Arial" font-size="24px" font-style="normal" font-weight="normal" text-decoration="none" x="600" y="330"></text>
		<text fill="#eeeeee" stroke="none" font-family="Arial" font-size="24px" font-style="normal" font-weight="normal" text-decoration="none" x="600" y="360"></text>
		<text fill="#eeeeee" stroke="none" font-family="Arial" font-size="24px" font-style="normal" font-weight="normal" text-decoration="none" x="600" y="390"></text>
		<text fill="#eeeeee" stroke="none" font-family="Arial" font-size="24px" font-style="normal" font-weight="normal" text-decoration="none" x="600" y="420"></text>
		<text fill="#eeeeee" stroke="none" font-family="Arial" font-size="24px" font-style="normal" font-weight="normal" text-decoration="none" x="600" y="450"></text>
		<text fill="#eeeeee" stroke="none" font-family="Arial" font-size="24px" font-style="normal" font-weight="normal" text-decoration="none" x="600" y="480"></text>
		<text fill="#eeeeee" stroke="none" font-family="Arial" font-size="24px" font-style="normal" font-weight="normal" text-decoration="none" x="600" y="510"></text>
		<text fill="#eeeeee" stroke="none" font-family="Arial" font-size="24px" font-style="normal" font-weight="normal" text-decoration="none" x="600" y="540"></text>
		<text fill="#eeeeee" stroke="none" font-family="Arial" font-size="24px" font-style="normal" font-weight="normal" text-decoration="none" x="600" y="570"></text>
		<text fill="#eeeeee" stroke="none" font-family="Arial" font-size="24px" font-style="normal" font-weight="normal" text-decoration="none" x="600" y="600"></text>
		<text fill="#eeeeee" stroke="none" font-family="Arial" font-size="24px" font-style="normal" font-weight="normal" text-decoration="none" x="600" y="630"></text>
		<text fill="#eeeeee" stroke="none" font-family="Arial" font-size="24px" font-style="normal" font-weight="normal" text-decoration="none" x="800" y="0"></text>
		<text fill="#eeeeee" stroke="none" font-family="Arial" font-size="24px" font-style="normal" font-weight="normal" text-decoration="none" x="800" y="30"></text>
		<text fill="#eeeeee" stroke="none" font-family="Arial" font-size="24px" font-style="normal" font-weight="normal" text-decoration="none" x="800" y="60"></text>
		<text fill="#eeeeee" stroke="none" font-family="Arial" font-size="24px" font-style="normal" font-weight="normal" text-decoration="none" x="800" y="90"></text>
		<text fill="#eeeeee" stroke="none" font-family="Arial" font-size="24px" font-style="normal" font-weight="normal" text-decoration="none" x="800" y="120"></text>
		<text fill="#eeeeee" stroke="none" font-family="Arial" font-size="24px" font-style="normal" font-weight="normal" text-decoration="none" x="800" y="150"></text>
		<text fill="#eeeeee" stroke="none" font-family="Arial" font-size="24px" font-style="normal" font-weight="normal" text-decoration="none" x="800" y="180"></text>
		<text fill="#eeeeee" stroke="none" font-family="Arial" font-size="24px" font-style="normal" font-weight="normal" text-decoration="none" x="800" y="210"></text>
		<text fill="#eeeeee" stroke="none" font-family="Arial" font-size="24px" font-style="normal" font-weight="normal" text-decoration="none" x="800" y="240"></text>
		<text fill="#eeeeee" stroke="none" font-family="Arial" font-size="24px" font-style="normal" font-weight="normal" text-decoration="none" x="800" y="270"></text>
		<text fill="#eeeeee" stroke="none" font-family="Arial" font-size="24px" font-style="normal" font-weight="normal" text-decoration="none" x="800" y="300"></text>
		<text fill="#eeeeee" stroke="none" font-family="Arial" font-size="24px" font-style="normal" font-weight="normal" text-decoration="none" x="800" y="330"></text>
		<text fill="#eeeeee" stroke="none" font-family="Arial" font-size="24px" font-style="normal" font-weight="normal" text-decoration="none" x="800" y="360"></text>
		<text fill="#eeeeee" stroke="none" font-family="Arial" font-size="24px" font-style="normal" font-weight="normal" text-decoration="none" x="800" y="390"></text>
		<text fill="#eeeeee" stroke="none" font-family="Arial" font-size="24px" font-style="normal" font-weight="normal" text-decoration="none" x="800" y="420"></text>
		<text fill="#eeeeee" stroke="none" font-family="Arial" font-size="24px" font-style="normal" font-weight="normal" text-decoration="none" x="800" y="450"></text>
		<text fill="#eeeeee" stroke="none" font-family="Arial" font-size="24px" font-style="normal" font-weight="normal" text-decoration="none" x="800" y="480"></text>
		<text fill="#eeeeee" stroke="none" font-family="Arial" font-size="24px" font-style="normal" font-weight="normal" text-decoration="none" x="800" y="510"></text>
		<text fill="#eeeeee" stroke="none" font-family="Arial" font-size="24px" font-style="normal" font-weight="normal" text-decoration="none" x="800" y="540"></text>
		<text fill="#eeeeee" stroke="none" font-family="Arial" font-size="24px" font-style="normal" font-weight="normal" text-decoration="none" x="800" y="570"></text>
		<text fill="#eeeeee" stroke="none" font-family="Arial" font-size="24px" font-style="normal" font-weight="normal" text-decoration="none" x="800" y="600"></text>
		<text fill="#eeeeee" stroke="none" font-family="Arial" font-size="24px" font-style="normal" font-weight="normal" text-decoration="none" x="800" y="630"></text>
		<text fill="#eeeeee" stroke="none" font-family="Arial" font-size="24px" font-style="normal" font-weight="normal" text-decoration="none" x="1000" y="0"></text>
		<text fill="#eeeeee" stroke="none" font-family="Arial" font-size="24px" font-style="normal" font-weight="normal" text-decoration="none" x="1000" y="30"></text>
		<text fill="#eeeeee" stroke="none" font-family="Arial" font-size="24px" font-style="normal" font-weight="normal" text-decoration="none" x="1000" y="60"></text>
		<text fill="#eeeeee" stroke="none" font-family="Arial" font-size="24px" font-style="normal" font-weight="normal" text-decoration="none" x="1000" y="90"></text>
		<text fill="#eeeeee" stroke="none" font-family="Arial" font-size="24px" font-style="normal" font-weight="normal" text-decoration="none" x="1000" y="120"></text>
		<text fill="#eeeeee" stroke="none" font-family="Arial" font-size="24px" font-style="normal" font-weight="normal" text-decoration="none" x="1000" y="150"></text>
		<text fill="#eeeeee" stroke="none" font-family="Arial" font-size="24px" font-style="normal" font-weight="normal" text-decoration="none" x="1000" y="180"></text>
		<text fill="#eeeeee" stroke="none" font-family="Arial" font-size="24px" font-style="normal" font-weight="normal" text-decoration="none" x="1000" y="210"></text>
		<text fill="#eeeeee" stroke="none" font-family="Arial" font-size="24px" font-style="normal" font-weight="normal" text-decoration="none" x="1000" y="240"></text>
		<text fill="#eeeeee" stroke="none" font-family="Arial" font-size="24px" font-style="normal" font-weight="normal" text-decoration="none" x="1000" y="270"></text>
		<text fill="#eeeeee" stroke="none" font-family="Arial" font-size="24px" font-style="normal" font-weight="normal" text-decoration="none" x="1000" y="300"></text>
		<text fill="#eeeeee" stroke="none" font-family="Arial" font-size="24px" font-style="normal" font-weight="normal" text-decoration="none" x="1000" y="330"></text>
		<text fill="#eeeeee" stroke="none" font-family="Arial" font-size="24px" font-style="normal" font-weight="normal" text-decoration="none" x="1000" y="360"></text>
		<text fill="#eeeeee" stroke="none" font-family="Arial" font-size="24px" font-style="normal" font-weight="normal" text-decoration="none" x="1000" y="390"></text>
		<text fill="#eeeeee" stroke="none" font-family="Arial" font-size="24px" font-style="normal" font-weight="normal" text-decoration="none" x="1000" y="420"></text>
		<text fill="#eeeeee" stroke="none" font-family="Arial" font-size="24px" font-style="normal" font-weight="normal" text-decoration="none" x="1000" y="450"></text>
		<text fill="#eeeeee" stroke="none" font-family="Arial" font-size="24px" font-style="normal" font-weight="normal" text-decoration="none" x="1000" y="480"></text>
		<text fill="#eeeeee" stroke="none" font-family="Arial" font-size="24px" font-style="normal" font-weight="normal" text-decoration="none" x="1000" y="510"></text>
		<text fill="#eeeeee" stroke="none" font-family="Arial" font-size="24px" font-style="normal" font-weight="normal" text-decoration="none" x="1000" y="540"></text>
		<text fill="#eeeeee" stroke="none" font-family="Arial" font-size="24px" font-style="normal" font-weight="normal" text-decoration="none" x="1000" y="570"></text>
		<text fill="#eeeeee" stroke="none" font-family="Arial" font-size="24px" font-style="normal" font-weight="normal" text-decoration="none" x="1000" y="600"></text>
		<text fill="#eeeeee" stroke="none" font-family="Arial" font-size="24px" font-style="normal" font-weight="normal" text-decoration="none" x="1000" y="630"></text>
		<text fill="#eeeeee" stroke="none" font-family="Arial" font-size="24px" font-style="normal" font-weight="normal" text-decoration="none" x="1200" y="0"></text>
		<text fill="#eeeeee" stroke="none" font-family="Arial" font-size="24px" font-style="normal" font-weight="normal" text-decoration="none" x="1200" y="30"></text>
		<text fill="#eeeeee" stroke="none" font-family="Arial" font-size="24px" font-style="normal" font-weight="normal" text-decoration="none" x="1200" y="60"></text>
		<text fill="#eeeeee" stroke="none" font-family="Arial" font-size="24px" font-style="normal" font-weight="normal" text-decoration="none" x="1200" y="90"></text>
		<text fill="#eeeeee" stroke="none" font-family="Arial" font-size="24px" font-style="normal" font-weight="normal" text-decoration="none" x="1200" y="120"></text>
		<text fill="#eeeeee" stroke="none" font-family="Arial" font-size="24px" font-style="normal" font-weight="normal" text-decoration="none" x="1200" y="150"></text>
		<text fill="#eeeeee" stroke="none" font-family="Arial" font-size="24px" font-style="normal" font-weight="normal" text-decoration="none" x="1200" y="180"></text>
		<text fill="#eeeeee" stroke="none" font-family="Arial" font-size="24px" font-style="normal" font-weight="normal" text-decoration="none" x="1200" y="210"></text>
		<text fill="#eeeeee" stroke="none" font-family="Arial" font-size="24px" font-style="normal" font-weight="normal" text-decoration="none" x="1200" y="240"></text>
		<text fill="#eeeeee" stroke="none" font-family="Arial" font-size="24px" font-style="normal" font-weight="normal" text-decoration="none" x="1200" y="270"></text>
		<text fill="#eeeeee" stroke="none" font-family="Arial" font-size="24px" font-style="normal" font-weight="normal" text-decoration="none" x="1200" y="300"></text>
		<text fill="#eeeeee" stroke="none" font-family="Arial" font-size="24px" font-style="normal" font-weight="normal" text-decoration="none" x="1200" y="330"></text>
		<text fill="#eeeeee" stroke="none" font-family="Arial" font-size="24px" font-style="normal" font-weight="normal" text-decoration="none" x="1200" y="360"></text>
		<text fill="#eeeeee" stroke="none" font-family="Arial" font-size="24px" font-style="normal" font-weight="normal" text-decoration="none" x="1200" y="390"></text>
		<text fill="#eeeeee" stroke="none" font-family="Arial" font-size="24px" font-style="normal" font-weight="normal" text-decoration="none" x="1200" y="420"></text>
		<text fill="#eeeeee" stroke="none" font-family="Arial" font-size="24px" font-style="normal" font-weight="normal" text-decoration="none" x="1200" y="450"></text>
		<text fill="#eeeeee" stroke="none" font-family="Arial" font-size="24px" font-style="normal" font-weight="normal" text-decoration="none" x="1200" y="480"></text>
		<text fill="#eeeeee" stroke="none" font-family="Arial" font-size="24px" font-style="normal" font-weight="normal" text-decoration="none" x="1200" y="510"></text>
		<text fill="#eeeeee" stroke="none" font-family="Arial" font-size="24px" font-style="normal" font-weight="normal" text-decoration="none" x="1200" y="540"></text>
		<text fill="#eeeeee" stroke="none" font-family="Arial" font-size="24px" font-style="normal" font-weight="normal" text-decoration="none" x="1200" y="570"></text>
		<text fill="#eeeeee" stroke="none" font-family="Arial" font-size="24px" font-style="normal" font-weight="normal" text-decoration="none" x="1200" y="600"></text>
		<text fill="#eeeeee" stroke="none" font-family="Arial" font-size="24px" font-style="normal" font-weight="normal" text-decoration="none" x="1200" y="630"></text>
		<g transform="translate(-62,-38) scale(1,1)">
			<path fill="none" stroke="#000000" d="M 72 48 L 1296 48 L 1296 680 L 72 680 L 72 48" stroke-miterlimit="10"/>
		</g>
		<g transform="translate(-62,-38) scale(1,1)">
			<path fill="#ffffff" stroke="none" d="M 72 48 L 72 70 L 168.22802734375 70 L 179.22802734375 59 L 179.22802734375 48 L 72 48"/>
		</g>
		<g transform="translate(-62,-38) scale(1,1)">
			<path fill="none" stroke="#000000" d="M 72 48 L 72 70 L 168.22802734375 70 L 179.22802734375 59 L 179.22802734375 48 L 72 48 L 72 48" stroke-miterlimit="10"/>
		</g>
		<g transform="translate(-62,-38) scale(1,1)">
			<g>
				<path fill="none" stroke="none"/>
				<text fill="#000000" stroke="none" font-family="Arial" font-size="13px" font-style="normal" font-weight="normal" text-decoration="none" x="103.9599609375" y="65.5">papapizza</text>
			</g>
		</g>
		<g transform="translate(-62,-38) scale(1,1)">
			<g>
				<path fill="none" stroke="none"/>
				<text fill="#000000" stroke="none" font-family="Arial" font-size="13px" font-style="normal" font-weight="bold" text-decoration="none" x="77" y="65.5">pkg</text>
			</g>
		</g>
		<g transform="translate(-62,-38) scale(1,1)">
			<rect fill="#C0C0C0" stroke="none" x="135" y="87" width="444.79999999999995" height="15" opacity="0.2"/>
		</g>
		<g transform="translate(-62,-38) scale(1,1)">
			<rect fill="#C0C0C0" stroke="none" x="135" y="101" width="1112" height="266" opacity="0.2"/>
		</g>
		<g transform="translate(-62,-38) scale(1,1)">
			<rect fill="#ffffff" stroke="none" x="128" y="95" width="1112" height="265"/>
		</g>
		<g transform="translate(-62,-38) scale(1,1)">
			<path fill="none" stroke="#000000" d="M 128 95 L 1240 95 L 1240 360 L 128 360 L 128 95 Z Z" stroke-miterlimit="10"/>
		</g>
		<g transform="translate(-62,-38) scale(1,1)">
			<rect fill="#ffffff" stroke="none" x="128" y="80" width="444.79999999999995" height="15"/>
		</g>
		<g transform="translate(-62,-38) scale(1,1)">
			<path fill="none" stroke="#000000" d="M 128 80 L 572.8 80 L 572.8 95 L 128 95 L 128 80 Z Z" stroke-miterlimit="10"/>
		</g>
		<g transform="translate(-62,-38) scale(1,1)">
			<rect fill="#ffffff" stroke="none" x="128" y="94" width="1112" height="266"/>
		</g>
		<g transform="translate(-62,-38) scale(1,1)">
			<path fill="none" stroke="#000000" d="M 128 94 L 1240 94 L 1240 360 L 128 360 L 128 94 Z Z" stroke-miterlimit="10"/>
		</g>
		<g transform="translate(-62,-38) scale(1,1)">
			<g>
				<path fill="none" stroke="none"/>
				<text fill="#000000" stroke="none" font-family="Arial" font-size="13px" font-style="normal" font-weight="bold" text-decoration="none" x="658.7109375" y="114.5">analytics</text>
			</g>
		</g>
		<g transform="translate(-62,-38) scale(1,1)">
			<rect fill="#C0C0C0" stroke="none" x="135" y="391" width="198.39999999999998" height="15" opacity="0.2"/>
		</g>
		<g transform="translate(-62,-38) scale(1,1)">
			<rect fill="#C0C0C0" stroke="none" x="135" y="405" width="496" height="226" opacity="0.2"/>
		</g>
		<g transform="translate(-62,-38) scale(1,1)">
			<rect fill="#ffffff" stroke="none" x="128" y="399" width="496" height="225"/>
		</g>
		<g transform="translate(-62,-38) scale(1,1)">
			<path fill="none" stroke="#000000" d="M 128 399 L 624 399 L 624 624 L 128 624 L 128 399 Z Z" stroke-miterlimit="10"/>
		</g>
		<g transform="translate(-62,-38) scale(1,1)">
			<rect fill="#ffffff" stroke="none" x="128" y="384" width="198.39999999999998" height="15"/>
		</g>
		<g transform="translate(-62,-38) scale(1,1)">
			<path fill="none" stroke="#000000" d="M 128 384 L 326.4 384 L 326.4 399 L 128 399 L 128 384 Z Z" stroke-miterlimit="10"/>
		</g>
		<g transform="translate(-62,-38) scale(1,1)">
			<rect fill="#ffffff" stroke="none" x="128" y="398" width="496" height="226"/>
		</g>
		<g transform="translate(-62,-38) scale(1,1)">
			<path fill="none" stroke="#000000" d="M 128 398 L 624 398 L 624 624 L 128 624 L 128 398 Z Z" stroke-miterlimit="10"/>
		</g>
		<g transform="translate(-62,-38) scale(1,1)">
			<g>
				<path fill="none" stroke="none"/>
				<text fill="#000000" stroke="none" font-family="Arial" font-size="13px" font-style="normal" font-weight="bold" text-decoration="none" x="360.825927734375" y="418.5">order</text>
			</g>
		</g>
		<g transform="translate(-62,-38) scale(1,1)">
			<rect fill="#C0C0C0" stroke="none" x="855" y="175" width="290.68359375" height="143" opacity="0.2"/>
		</g>
		<g transform="translate(-62,-38) scale(1,1)">
			<rect fill="#ffffff" stroke="none" x="848" y="168" width="290.68359375" height="143"/>
		</g>
		<g transform="translate(-62,-38) scale(1,1)">
			<path fill="none" stroke="#000000" d="M 848 168 L 1138.68359375 168 L 1138.68359375 311 L 848 311 L 848 168 Z Z" stroke-miterlimit="10"/>
		</g>
		<g transform="translate(-62,-38) scale(1,1)">
			<path fill="none" stroke="#000000" d="M 848 193 L 1138.68359375 193" stroke-miterlimit="10"/>
		</g>
		<g transform="translate(-62,-38) scale(1,1)">
			<path fill="none" stroke="#000000" d="M 848 203 L 1138.68359375 203" stroke-miterlimit="10"/>
		</g>
		<g transform="translate(-62,-38) scale(1,1)">
			<g>
				<path fill="none" stroke="none"/>
				<text fill="#000000" stroke="none" font-family="Arial" font-size="13px" font-style="normal" font-weight="bold" text-decoration="none" x="967.332275390625" y="187.5">Analytics</text>
			</g>
		</g>
		<g transform="translate(-62,-38) scale(1,1)">
			<g>
				<path fill="none" stroke="none"/>
				<text fill="#000000" stroke="none" font-family="Arial" font-size="13px" font-style="normal" font-weight="normal" text-decoration="none" x="853" y="220.5">+generateSalesGraph(orders: List&lt;ShopOrder&gt;)</text>
			</g>
		</g>
		<g transform="translate(-62,-38) scale(1,1)">
			<g>
				<path fill="none" stroke="none"/>
				<text fill="#000000" stroke="none" font-family="Arial" font-size="13px" font-style="normal" font-weight="normal" text-decoration="none" x="853" y="235.5">+generateTimesGraph(orders: List&lt;ShopOrder&gt;)</text>
			</g>
		</g>
		<g transform="translate(-62,-38) scale(1,1)">
			<g>
				<path fill="none" stroke="none"/>
				<text fill="#000000" stroke="none" font-family="Arial" font-size="13px" font-style="normal" font-weight="normal" text-decoration="none" x="853" y="250.5">+showInvoice(orer: ShopOrder)</text>
			</g>
		</g>
		<g transform="translate(-62,-38) scale(1,1)">
			<rect fill="#C0C0C0" stroke="none" x="183" y="175" width="503.59033203125" height="143" opacity="0.2"/>
		</g>
		<g transform="translate(-62,-38) scale(1,1)">
			<rect fill="#ffffff" stroke="none" x="176" y="168" width="503.59033203125" height="143"/>
		</g>
		<g transform="translate(-62,-38) scale(1,1)">
			<path fill="none" stroke="#000000" d="M 176 168 L 679.59033203125 168 L 679.59033203125 311 L 176 311 L 176 168 Z Z" stroke-miterlimit="10"/>
		</g>
		<g transform="translate(-62,-38) scale(1,1)">
			<path fill="none" stroke="#000000" d="M 176 193 L 679.59033203125 193" stroke-miterlimit="10"/>
		</g>
		<g transform="translate(-62,-38) scale(1,1)">
			<path fill="none" stroke="#000000" d="M 176 203 L 679.59033203125 203" stroke-miterlimit="10"/>
		</g>
		<g transform="translate(-62,-38) scale(1,1)">
			<g>
				<path fill="none" stroke="none"/>
				<text fill="#000000" stroke="none" font-family="Arial" font-size="13px" font-style="normal" font-weight="bold" text-decoration="none" x="373.6083984375" y="187.5">AnalyticsController</text>
			</g>
		</g>
		<g transform="translate(-62,-38) scale(1,1)">
			<g>
				<path fill="none" stroke="none"/>
				<text fill="#000000" stroke="none" font-family="Arial" font-size="13px" font-style="normal" font-weight="normal" text-decoration="none" x="181" y="220.5">+AnalyticsController(orderManagement: ShopOrderManagement, analytics: Analytics)</text>
			</g>
		</g>
		<g transform="translate(-62,-38) scale(1,1)">
			<rect fill="#C0C0C0" stroke="none" x="311" y="479" width="159" height="44" opacity="0.2"/>
		</g>
		<g transform="translate(-62,-38) scale(1,1)">
			<rect fill="#ffffff" stroke="none" x="304" y="472" width="159" height="44"/>
		</g>
		<g transform="translate(-62,-38) scale(1,1)">
			<path fill="none" stroke="#000000" d="M 304 472 L 463 472 L 463 516 L 304 516 L 304 472 Z Z" stroke-miterlimit="10"/>
		</g>
		<g transform="translate(-62,-38) scale(1,1)">
			<path fill="none" stroke="#000000" d="M 304 497 L 463 497" stroke-miterlimit="10"/>
		</g>
		<g transform="translate(-62,-38) scale(1,1)">
			<path fill="none" stroke="#000000" d="M 304 507 L 463 507" stroke-miterlimit="10"/>
		</g>
		<g transform="translate(-62,-38) scale(1,1)">
			<g>
				<path fill="none" stroke="none"/>
				<text fill="#000000" stroke="none" font-family="Arial" font-size="13px" font-style="normal" font-weight="bold" text-decoration="none" x="313.7646484375" y="491.5">ShopOrderManagement</text>
			</g>
		</g>
		<g transform="translate(-62,-38) scale(1,1)">
			<path fill="none" stroke="#000000" d="M 681 239 L 847 239" stroke-miterlimit="10"/>
		</g>
		<g transform="translate(-62,-38) scale(1,1)">
			<path fill="none" stroke="#000000" d="M 836.8373251423759 243.209517756016 L 847 239 L 836.8373251423758 234.790482243984" stroke-miterlimit="10"/>
		</g>
		<g transform="translate(-62,-38) scale(1,1)">
			<g>
				<path fill="none" stroke="none"/>
				<text fill="#000000" stroke="none" font-family="Arial" font-size="13px" font-style="normal" font-weight="normal" text-decoration="none" x="782.5" y="230.5">-analytics</text>
			</g>
		</g>
		<g transform="translate(-62,-38) scale(1,1)">
			<path fill="none" stroke="#000000" d="M 256 311 L 256 486 M 256 486 A 8 8 0 0 0 264 494 L 304 494" stroke-miterlimit="10"/>
		</g>
		<g transform="translate(-62,-38) scale(1,1)">
			<path fill="none" stroke="#000000" d="M 293.83732514237585 498.209517756016 L 304 494 L 293.83732514237585 489.790482243984" stroke-miterlimit="10"/>
		</g>
		<g transform="translate(-62,-38) scale(1,1)">
			<g>
				<path fill="none" stroke="none"/>
				<text fill="#000000" stroke="none" font-family="Arial" font-size="13px" font-style="normal" font-weight="normal" text-decoration="none" x="174.5" y="512.5">-orderManagement</text>
			</g>
		</g>
		<g transform="translate(-62,-38) scale(1,1)">
			<rect fill="#C0C0C0" stroke="none" x="799" y="487" width="160" height="44" opacity="0.2"/>
		</g>
		<g transform="translate(-62,-38) scale(1,1)">
			<rect fill="#ffffff" stroke="none" x="792" y="480" width="160" height="44"/>
		</g>
		<g transform="translate(-62,-38) scale(1,1)">
			<path fill="none" stroke="#000000" d="M 792 480 L 952 480 L 952 524 L 792 524 L 792 480 Z Z" stroke-miterlimit="10"/>
		</g>
		<g transform="translate(-62,-38) scale(1,1)">
			<path fill="none" stroke="#000000" d="M 792 505 L 952 505" stroke-miterlimit="10"/>
		</g>
		<g transform="translate(-62,-38) scale(1,1)">
			<path fill="none" stroke="#000000" d="M 792 515 L 952 515" stroke-miterlimit="10"/>
		</g>
		<g transform="translate(-62,-38) scale(1,1)">
			<g>
				<path fill="none" stroke="none"/>
				<text fill="#000000" stroke="none" font-family="Arial" font-size="13px" font-style="normal" font-weight="bold" text-decoration="none" x="860.799560546875" y="499.5">Plot</text>
			</g>
		</g>
		<g transform="translate(-62,-38) scale(1,1)">
			<rect fill="#C0C0C0" stroke="none" x="751" y="391" width="198.39999999999998" height="15" opacity="0.2"/>
		</g>
		<g transform="translate(-62,-38) scale(1,1)">
			<rect fill="#C0C0C0" stroke="none" x="751" y="405" width="496" height="226" opacity="0.2"/>
		</g>
		<g transform="translate(-62,-38) scale(1,1)">
			<rect fill="#ffffff" stroke="none" x="744" y="399" width="496" height="225"/>
		</g>
		<g transform="translate(-62,-38) scale(1,1)">
			<path fill="none" stroke="#000000" d="M 744 399 L 1240 399 L 1240 624 L 744 624 L 744 399 Z Z" stroke-miterlimit="10"/>
		</g>
		<g transform="translate(-62,-38) scale(1,1)">
			<rect fill="#ffffff" stroke="none" x="744" y="384" width="198.39999999999998" height="15"/>
		</g>
		<g transform="translate(-62,-38) scale(1,1)">
			<path fill="none" stroke="#000000" d="M 744 384 L 942.4 384 L 942.4 399 L 744 399 L 744 384 Z Z" stroke-miterlimit="10"/>
		</g>
		<g transform="translate(-62,-38) scale(1,1)">
			<rect fill="#ffffff" stroke="none" x="744" y="398" width="496" height="226"/>
		</g>
		<g transform="translate(-62,-38) scale(1,1)">
			<path fill="none" stroke="#000000" d="M 744 398 L 1240 398 L 1240 624 L 744 624 L 744 398 Z Z" stroke-miterlimit="10"/>
		</g>
		<g transform="translate(-62,-38) scale(1,1)">
			<g>
				<path fill="none" stroke="none"/>
				<text fill="#000000" stroke="none" font-family="Arial" font-size="13px" font-style="normal" font-weight="bold" text-decoration="none" x="965.62548828125" y="418.5">matplot4j</text>
			</g>
		</g>
		<g transform="translate(-62,-38) scale(1,1)">
			<rect fill="#C0C0C0" stroke="none" x="911" y="479" width="191" height="44" opacity="0.2"/>
		</g>
		<g transform="translate(-62,-38) scale(1,1)">
			<rect fill="#ffffff" stroke="none" x="904" y="472" width="191" height="44"/>
		</g>
		<g transform="translate(-62,-38) scale(1,1)">
			<path fill="none" stroke="#000000" d="M 904 472 L 1095 472 L 1095 516 L 904 516 L 904 472 Z Z" stroke-miterlimit="10"/>
		</g>
		<g transform="translate(-62,-38) scale(1,1)">
			<path fill="none" stroke="#000000" d="M 904 497 L 1095 497" stroke-miterlimit="10"/>
		</g>
		<g transform="translate(-62,-38) scale(1,1)">
			<path fill="none" stroke="#000000" d="M 904 507 L 1095 507" stroke-miterlimit="10"/>
		</g>
		<g transform="translate(-62,-38) scale(1,1)">
			<g>
				<path fill="none" stroke="none"/>
				<text fill="#000000" stroke="none" font-family="Arial" font-size="13px" font-style="normal" font-weight="bold" text-decoration="none" x="988.299560546875" y="491.5">Plot</text>
			</g>
		</g>
		<g transform="translate(-62,-38) scale(1,1)">
			<path fill="none" stroke="#000000" d="M 1120 311 L 1120 486 M 1120 486 A 8 8 0 0 1 1112 494 L 1095 494" stroke-miterlimit="10"/>
		</g>
		<g transform="translate(-62,-38) scale(1,1)">
			<path fill="none" stroke="#000000" d="M 1105.162674857624 489.790482243984 L 1095 494 L 1105.162674857624 498.209517756016" stroke-miterlimit="10"/>
		</g>
		<g transform="translate(-62,-38) scale(1,1)">
			<g>
				<path fill="none" stroke="none"/>
				<text fill="#000000" stroke="none" font-family="Arial" font-size="13px" font-style="normal" font-weight="normal" text-decoration="none" x="1106.2958984375" y="515.5">-plot</text>
			</g>
		</g>
	</g>
</svg>