<svg version="1.1" xmlns="http://www.w3.org/2000/svg" xmlns:xlink="http://www.w3.org/1999/xlink" width="644" height="340">
	<defs/>
	<g>
		<g transform="translate(2,2) scale(1,1)">
			<path fill="none" stroke="#000000" d="M 8 8 L 632 8 L 632 328 L 8 328 L 8 8" stroke-miterlimit="10"/>
		</g>
		<g transform="translate(2,2) scale(1,1)">
			<path fill="#ffffff" stroke="none" d="M 8 8 L 8 30 L 198.1416015625 30 L 209.1416015625 19 L 209.1416015625 8 L 8 8"/>
		</g>
		<g transform="translate(2,2) scale(1,1)">
			<path fill="none" stroke="#000000" d="M 8 8 L 8 30 L 198.1416015625 30 L 209.1416015625 19 L 209.1416015625 8 L 8 8 L 8 8" stroke-miterlimit="10"/>
		</g>
		<g transform="translate(2,2) scale(1,1)">
			<g>
				<path fill="none" stroke="none"/>
				<text fill="#000000" stroke="none" font-family="Arial" font-size="13px" font-style="normal" font-weight="normal" text-decoration="none" x="32.72998046875" y="25.5">UC0350 create PizzaPreset</text>
			</g>
		</g>
		<g transform="translate(2,2) scale(1,1)">
			<g>
				<path fill="none" stroke="none"/>
				<text fill="#000000" stroke="none" font-family="Arial" font-size="13px" font-style="normal" font-weight="bold" text-decoration="none" x="13" y="25.5">sd</text>
			</g>
		</g>
		<g transform="translate(2,2) scale(1,1)">
			<rect fill="#C0C0C0" stroke="none" x="127" y="47" width="120.1435546875" height="39" opacity="0.2"/>
		</g>
		<g transform="translate(2,2) scale(1,1)">
			<rect fill="#ffffff" stroke="none" x="120" y="40" width="120.1435546875" height="39"/>
		</g>
		<g transform="translate(2,2) scale(1,1)">
			<path fill="none" stroke="#000000" d="M 120 40 L 240.1435546875 40 L 240.1435546875 79 L 120 79 L 120 40 Z Z" stroke-miterlimit="10"/>
		</g>
		<g transform="translate(2,2) scale(1,1)">
			<g>
				<path fill="none" stroke="none"/>
				<text fill="#000000" stroke="none" font-family="Arial" font-size="13px" font-style="normal" font-weight="bold" text-decoration="none" x="133.10546875" y="59.5">Boss: Employee</text>
			</g>
		</g>
		<g transform="translate(2,2) scale(1,1)">
			<path fill="none" stroke="#000000" d="M 181.5 80 L 181.5 312" stroke-miterlimit="10" stroke-dasharray="3"/>
		</g>
		<g transform="translate(2,2) scale(1,1)">
			<rect fill="#C0C0C0" stroke="none" x="287" y="47" width="187.3271484375" height="39" opacity="0.2"/>
		</g>
		<g transform="translate(2,2) scale(1,1)">
			<rect fill="#ffffff" stroke="none" x="280" y="40" width="187.3271484375" height="39"/>
		</g>
		<g transform="translate(2,2) scale(1,1)">
			<path fill="none" stroke="#000000" d="M 280 40 L 467.3271484375 40 L 467.3271484375 79 L 280 79 L 280 40 Z Z" stroke-miterlimit="10"/>
		</g>
		<g transform="translate(2,2) scale(1,1)">
			<g>
				<path fill="none" stroke="none"/>
				<text fill="#000000" stroke="none" font-family="Arial" font-size="13px" font-style="normal" font-weight="bold" text-decoration="none" x="343.3154296875" y="59.5">: Inventory</text>
			</g>
		</g>
		<g transform="translate(2,2) scale(1,1)">
			<path fill="none" stroke="#000000" d="M 374.5 80 L 374.5 312" stroke-miterlimit="10" stroke-dasharray="3"/>
		</g>
		<g transform="translate(2,2) scale(1,1)">
			<rect fill="#C0C0C0" stroke="none" x="503" y="47" width="114.37353515625" height="39" opacity="0.2"/>
		</g>
		<g transform="translate(2,2) scale(1,1)">
			<rect fill="#ffffff" stroke="none" x="496" y="40" width="114.37353515625" height="39"/>
		</g>
		<g transform="translate(2,2) scale(1,1)">
			<path fill="none" stroke="#000000" d="M 496 40 L 610.37353515625 40 L 610.37353515625 79 L 496 79 L 496 40 Z Z" stroke-miterlimit="10"/>
		</g>
		<g transform="translate(2,2) scale(1,1)">
			<g>
				<path fill="none" stroke="none"/>
				<text fill="#000000" stroke="none" font-family="Arial" font-size="13px" font-style="normal" font-weight="bold" text-decoration="none" x="507.66455078125" y="59.5">o1: PizzaPreset</text>
			</g>
		</g>
		<g transform="translate(2,2) scale(1,1)">
			<path fill="none" stroke="#000000" d="M 554.5 80 L 554.5 312" stroke-miterlimit="10" stroke-dasharray="3"/>
		</g>
		<g transform="translate(2,2) scale(1,1)">
			<path fill="none" stroke="#000000" d="M 181 112 L 367 112" stroke-miterlimit="10"/>
		</g>
		<g transform="translate(2,2) scale(1,1)">
			<path fill="#000000" stroke="none" d="M 356.83732514237585 116.20951775601598 L 367 112 L 356.83732514237585 107.79048224398402"/>
		</g>
		<g transform="translate(2,2) scale(1,1)">
			<path fill="none" stroke="#000000" d="M 356.83732514237585 116.20951775601598 L 367 112 L 356.83732514237585 107.79048224398402 L 356.83732514237585 116.20951775601598" stroke-miterlimit="10"/>
		</g>
		<g transform="translate(2,2) scale(1,1)">
			<g>
				<path fill="none" stroke="none"/>
				<text fill="#000000" stroke="none" font-family="Arial" font-size="13px" font-style="normal" font-weight="normal" text-decoration="none" x="210.5" y="108.5">1 : createNewPreset()</text>
			</g>
		</g>
		<g transform="translate(2,2) scale(1,1)">
			<rect fill="#ffffff" stroke="none" x="367" y="112" width="13" height="144"/>
		</g>
		<g transform="translate(2,2) scale(1,1)">
			<path fill="none" stroke="#000000" d="M 367 112 L 380 112 L 380 256 L 367 256 L 367 112 Z Z" stroke-miterlimit="10"/>
		</g>
		<g transform="translate(2,2) scale(1,1)">
			<path fill="none" stroke="#000000" d="M 367 136 L 187 136" stroke-miterlimit="10"/>
		</g>
		<g transform="translate(2,2) scale(1,1)">
			<path fill="#000000" stroke="none" d="M 197.16267485762415 131.790482243984 L 187 136 L 197.16267485762415 140.209517756016"/>
		</g>
		<g transform="translate(2,2) scale(1,1)">
			<path fill="none" stroke="#000000" d="M 197.16267485762415 131.790482243984 L 187 136 L 197.16267485762415 140.209517756016 L 197.16267485762415 131.790482243984" stroke-miterlimit="10"/>
		</g>
		<g transform="translate(2,2) scale(1,1)">
			<g>
				<path fill="none" stroke="none"/>
				<text fill="#000000" stroke="none" font-family="Arial" font-size="13px" font-style="normal" font-weight="normal" text-decoration="none" x="251.324951171875" y="152.5">2 : Form</text>
			</g>
		</g>
		<g transform="translate(2,2) scale(1,1)">
			<rect fill="#ffffff" stroke="none" x="174" y="136" width="13" height="120"/>
		</g>
		<g transform="translate(2,2) scale(1,1)">
			<path fill="none" stroke="#000000" d="M 174 136 L 187 136 L 187 256 L 174 256 L 174 136 Z Z" stroke-miterlimit="10"/>
		</g>
		<g transform="translate(2,2) scale(1,1)">
			<path fill="none" stroke="#000000" d="M 187 184 L 367 184" stroke-miterlimit="10" stroke-dasharray="3"/>
		</g>
		<g transform="translate(2,2) scale(1,1)">
			<path fill="none" stroke="#000000" d="M 356.83732514237585 188.209517756016 L 367 184 L 356.83732514237585 179.790482243984" stroke-miterlimit="10"/>
		</g>
		<g transform="translate(2,2) scale(1,1)">
			<g>
				<path fill="none" stroke="none"/>
				<text fill="#000000" stroke="none" font-family="Arial" font-size="13px" font-style="normal" font-weight="normal" text-decoration="none" x="237.5" y="180.5">3 : fill in Form</text>
			</g>
		</g>
		<g transform="translate(2,2) scale(1,1)">
			<path fill="none" stroke="#000000" d="M 380 200 L 547 200" stroke-miterlimit="10"/>
		</g>
		<g transform="translate(2,2) scale(1,1)">
			<path fill="#000000" stroke="none" d="M 536.8373251423759 204.209517756016 L 547 200 L 536.8373251423758 195.790482243984"/>
		</g>
		<g transform="translate(2,2) scale(1,1)">
			<path fill="none" stroke="#000000" d="M 536.8373251423759 204.209517756016 L 547 200 L 536.8373251423758 195.790482243984 L 536.8373251423759 204.209517756016" stroke-miterlimit="10"/>
		</g>
		<g transform="translate(2,2) scale(1,1)">
			<g>
				<path fill="none" stroke="none"/>
				<text fill="#000000" stroke="none" font-family="Arial" font-size="13px" font-style="normal" font-weight="normal" text-decoration="none" x="399.5" y="196.5">4 : createNewPreset()</text>
			</g>
		</g>
		<g transform="translate(2,2) scale(1,1)">
			<rect fill="#ffffff" stroke="none" x="547" y="200" width="13" height="32"/>
		</g>
		<g transform="translate(2,2) scale(1,1)">
			<path fill="none" stroke="#000000" d="M 547 200 L 560 200 L 560 232 L 547 232 L 547 200 Z Z" stroke-miterlimit="10"/>
		</g>
		<g transform="translate(2,2) scale(1,1)">
			<path fill="none" stroke="#000000" d="M 554 232 L 380 232" stroke-miterlimit="10" stroke-dasharray="3"/>
		</g>
		<g transform="translate(2,2) scale(1,1)">
			<path fill="none" stroke="#000000" d="M 390.16267485762415 227.790482243984 L 380 232 L 390.16267485762415 236.209517756016" stroke-miterlimit="10"/>
		</g>
		<g transform="translate(2,2) scale(1,1)">
			<g>
				<path fill="none" stroke="none"/>
				<text fill="#000000" stroke="none" font-family="Arial" font-size="13px" font-style="normal" font-weight="normal" text-decoration="none" x="456.5" y="248.5">5 :</text>
			</g>
		</g>
		<g transform="translate(2,2) scale(1,1)">
			<path fill="none" stroke="#000000" d="M 374 256 L 181 256" stroke-miterlimit="10" stroke-dasharray="3"/>
		</g>
		<g transform="translate(2,2) scale(1,1)">
			<path fill="none" stroke="#000000" d="M 191.16267485762415 251.790482243984 L 181 256 L 191.16267485762415 260.209517756016" stroke-miterlimit="10"/>
		</g>
		<g transform="translate(2,2) scale(1,1)">
			<g>
				<path fill="none" stroke="none"/>
				<text fill="#000000" stroke="none" font-family="Arial" font-size="13px" font-style="normal" font-weight="normal" text-decoration="none" x="252.5" y="272.5">6 : reply</text>
			</g>
		</g>
	</g>
</svg>
