<svg version="1.1" xmlns="http://www.w3.org/2000/svg" xmlns:xlink="http://www.w3.org/1999/xlink" width="711" height="372">
	<defs/>
	<g>

		<g transform="translate(-6,-6) scale(1,1)">
			<path fill="none" stroke="#000000" d="M 16 16 L 707 16 L 707 368 L 16 368 L 16 16" stroke-miterlimit="10"/>
		</g>
		<g transform="translate(-6,-6) scale(1,1)">
			<path fill="#ffffff" stroke="none" d="M 16 16 L 16 38 L 183.00439453125 38 L 194.00439453125 27 L 194.00439453125 16 L 16 16"/>
		</g>
		<g transform="translate(-6,-6) scale(1,1)">
			<path fill="none" stroke="#000000" d="M 16 16 L 16 38 L 183.00439453125 38 L 194.00439453125 27 L 194.00439453125 16 L 16 16 L 16 16" stroke-miterlimit="10"/>
		</g>
		<g transform="translate(-6,-6) scale(1,1)">
			<g>
				<path fill="none" stroke="none"/>
				<text fill="#000000" stroke="none" font-family="Arial" font-size="13px" font-style="normal" font-weight="normal" text-decoration="none" x="40.72998046875" y="33.5">UC0730 view all Orders</text>
			</g>
		</g>
		<g transform="translate(-6,-6) scale(1,1)">
			<g>
				<path fill="none" stroke="none"/>
				<text fill="#000000" stroke="none" font-family="Arial" font-size="13px" font-style="normal" font-weight="bold" text-decoration="none" x="21" y="33.5">sd</text>
			</g>
		</g>
		<g transform="translate(-6,-6) scale(1,1)">
			<rect fill="#C0C0C0" stroke="none" x="151" y="47" width="88.3544921875" height="39" opacity="0.2"/>
		</g>
		<g transform="translate(-6,-6) scale(1,1)">
			<rect fill="#ffffff" stroke="none" x="144" y="40" width="88.3544921875" height="39"/>
		</g>
		<g transform="translate(-6,-6) scale(1,1)">
			<path fill="none" stroke="#000000" d="M 144 40 L 232.3544921875 40 L 232.3544921875 79 L 144 79 L 144 40 Z Z" stroke-miterlimit="10"/>
		</g>
		<g transform="translate(-6,-6) scale(1,1)">
			<g>
				<path fill="none" stroke="none"/>
				<text fill="#000000" stroke="none" font-family="Arial" font-size="13px" font-style="normal" font-weight="bold" text-decoration="none" x="155.661376953125" y="59.5">: Employee</text>
			</g>
		</g>
		<g transform="translate(-6,-6) scale(1,1)">
			<path fill="none" stroke="#000000" d="M 189.5 80 L 189.5 312" stroke-miterlimit="10" stroke-dasharray="3"/>
		</g>
		<g transform="translate(-6,-6) scale(1,1)">
			<rect fill="#C0C0C0" stroke="none" x="327" y="47" width="141.8017578125" height="39" opacity="0.2"/>
		</g>
		<g transform="translate(-6,-6) scale(1,1)">
			<rect fill="#ffffff" stroke="none" x="320" y="40" width="141.8017578125" height="39"/>
		</g>
		<g transform="translate(-6,-6) scale(1,1)">
			<path fill="none" stroke="#000000" d="M 320 40 L 461.8017578125 40 L 461.8017578125 79 L 320 79 L 320 40 Z Z" stroke-miterlimit="10"/>
		</g>
		<g transform="translate(-6,-6) scale(1,1)">
			<g>
				<path fill="none" stroke="none"/>
				<text fill="#000000" stroke="none" font-family="Arial" font-size="13px" font-style="normal" font-weight="bold" text-decoration="none" x="332.734130859375" y="59.5">: OrderManagement</text>
			</g>
		</g>
		<g transform="translate(-6,-6) scale(1,1)">
			<path fill="none" stroke="#000000" d="M 391.5 80 L 391.5 312" stroke-miterlimit="10" stroke-dasharray="3"/>
		</g>
		<g transform="translate(-6,-6) scale(1,1)">
			<rect fill="#C0C0C0" stroke="none" x="527" y="47" width="134.57177734375" height="39" opacity="0.2"/>
		</g>
		<g transform="translate(-6,-6) scale(1,1)">
			<rect fill="#ffffff" stroke="none" x="520" y="40" width="134.57177734375" height="39"/>
		</g>
		<g transform="translate(-6,-6) scale(1,1)">
			<path fill="none" stroke="#000000" d="M 520 40 L 654.57177734375 40 L 654.57177734375 79 L 520 79 L 520 40 Z Z" stroke-miterlimit="10"/>
		</g>
		<g transform="translate(-6,-6) scale(1,1)">
			<g>
				<path fill="none" stroke="none"/>
				<text fill="#000000" stroke="none" font-family="Arial" font-size="13px" font-style="normal" font-weight="bold" text-decoration="none" x="534.1845703125" y="59.5">: OrderRepostitory</text>
			</g>
		</g>
		<g transform="translate(-6,-6) scale(1,1)">
			<path fill="none" stroke="#000000" d="M 588.5 80 L 588.5 312" stroke-miterlimit="10" stroke-dasharray="3"/>
		</g>
		<g transform="translate(-6,-6) scale(1,1)">
			<path fill="none" stroke="#000000" d="M 189 128 L 384 128" stroke-miterlimit="10"/>
		</g>
		<g transform="translate(-6,-6) scale(1,1)">
			<path fill="#000000" stroke="none" d="M 373.83732514237585 132.209517756016 L 384 128 L 373.83732514237585 123.79048224398402"/>
		</g>
		<g transform="translate(-6,-6) scale(1,1)">
			<path fill="none" stroke="#000000" d="M 373.83732514237585 132.209517756016 L 384 128 L 373.83732514237585 123.79048224398402 L 373.83732514237585 132.209517756016" stroke-miterlimit="10"/>
		</g>
		<g transform="translate(-6,-6) scale(1,1)">
			<g>
				<path fill="none" stroke="none"/>
				<text fill="#000000" stroke="none" font-family="Arial" font-size="13px" font-style="normal" font-weight="normal" text-decoration="none" x="218.5" y="124.5">1 : viewCurrentOrders()</text>
			</g>
		</g>
		<g transform="translate(-6,-6) scale(1,1)">
			<rect fill="#ffffff" stroke="none" x="384" y="128" width="13" height="88"/>
		</g>
		<g transform="translate(-6,-6) scale(1,1)">
			<path fill="none" stroke="#000000" d="M 384 128 L 397 128 L 397 216 L 384 216 L 384 128 Z Z" stroke-miterlimit="10"/>
		</g>
		<g transform="translate(-6,-6) scale(1,1)">
			<path fill="none" stroke="#000000" d="M 397 152 L 581 152" stroke-miterlimit="10"/>
		</g>
		<g transform="translate(-6,-6) scale(1,1)">
			<path fill="#000000" stroke="none" d="M 570.8373251423759 156.209517756016 L 581 152 L 570.8373251423758 147.790482243984"/>
		</g>
		<g transform="translate(-6,-6) scale(1,1)">
			<path fill="none" stroke="#000000" d="M 570.8373251423759 156.209517756016 L 581 152 L 570.8373251423758 147.790482243984 L 570.8373251423759 156.209517756016" stroke-miterlimit="10"/>
		</g>
		<g transform="translate(-6,-6) scale(1,1)">
			<g>
				<path fill="none" stroke="none"/>
				<text fill="#000000" stroke="none" font-family="Arial" font-size="13px" font-style="normal" font-weight="normal" text-decoration="none" x="424.5" y="139.5">2 : getCurrentOrders()</text>
			</g>
		</g>
		<g transform="translate(-6,-6) scale(1,1)">
			<rect fill="#ffffff" stroke="none" x="581" y="152" width="13" height="64"/>
		</g>
		<g transform="translate(-6,-6) scale(1,1)">
			<path fill="none" stroke="#000000" d="M 581 152 L 594 152 L 594 216 L 581 216 L 581 152 Z Z" stroke-miterlimit="10"/>
		</g>
		<g transform="translate(-6,-6) scale(1,1)">
			<path fill="none" stroke="#000000" d="M 581 192 L 397 192" stroke-miterlimit="10" stroke-dasharray="3"/>
		</g>
		<g transform="translate(-6,-6) scale(1,1)">
			<path fill="none" stroke="#000000" d="M 407.16267485762415 187.790482243984 L 397 192 L 407.16267485762415 196.209517756016" stroke-miterlimit="10"/>
		</g>
		<g transform="translate(-6,-6) scale(1,1)">
			<g>
				<path fill="none" stroke="none"/>
				<text fill="#000000" stroke="none" font-family="Arial" font-size="13px" font-style="normal" font-weight="normal" text-decoration="none" x="478.5" y="208.5">3 : </text>
			</g>
		</g>
		<g transform="translate(-6,-6) scale(1,1)">
			<path fill="none" stroke="#000000" d="M 384 208 L 189 208" stroke-miterlimit="10" stroke-dasharray="3"/>
		</g>
		<g transform="translate(-6,-6) scale(1,1)">
			<path fill="none" stroke="#000000" d="M 199.16267485762415 203.790482243984 L 189 208 L 199.16267485762415 212.209517756016" stroke-miterlimit="10"/>
		</g>
		<g transform="translate(-6,-6) scale(1,1)">
			<g>
				<path fill="none" stroke="none"/>
				<text fill="#000000" stroke="none" font-family="Arial" font-size="13px" font-style="normal" font-weight="normal" text-decoration="none" x="275.5" y="224.5">4 : </text>
			</g>
		</g>
	</g>
</svg>