<svg version="1.1" xmlns="http://www.w3.org/2000/svg" xmlns:xlink="http://www.w3.org/1999/xlink" width="652" height="356">
	<defs/>
	<g>
		
		<g transform="translate(-6,-6) scale(1,1)">
			<path fill="none" stroke="#000000" d="M 16 16 L 648 16 L 648 352 L 16 352 L 16 16" stroke-miterlimit="10"/>
		</g>
		<g transform="translate(-6,-6) scale(1,1)">
			<path fill="#ffffff" stroke="none" d="M 16 16 L 16 38 L 224.9306640625 38 L 235.9306640625 27 L 235.9306640625 16 L 16 16"/>
		</g>
		<g transform="translate(-6,-6) scale(1,1)">
			<path fill="none" stroke="#000000" d="M 16 16 L 16 38 L 224.9306640625 38 L 235.9306640625 27 L 235.9306640625 16 L 16 16 L 16 16" stroke-miterlimit="10"/>
		</g>
		<g transform="translate(-6,-6) scale(1,1)">
			<g>
				<path fill="none" stroke="none"/>
				<text fill="#000000" stroke="none" font-family="Arial" font-size="13px" font-style="normal" font-weight="normal" text-decoration="none" x="40.72998046875" y="33.5">UC0140 edit CustomerAccount</text>
			</g>
		</g>
		<g transform="translate(-6,-6) scale(1,1)">
			<g>
				<path fill="none" stroke="none"/>
				<text fill="#000000" stroke="none" font-family="Arial" font-size="13px" font-style="normal" font-weight="bold" text-decoration="none" x="21" y="33.5">sd</text>
			</g>
		</g>
		<g transform="translate(-6,-6) scale(1,1)">
			<rect fill="#C0C0C0" stroke="none" x="151" y="47" width="88.3544921875" height="39" opacity="0.2"/>
		</g>
		<g transform="translate(-6,-6) scale(1,1)">
			<rect fill="#ffffff" stroke="none" x="144" y="40" width="88.3544921875" height="39"/>
		</g>
		<g transform="translate(-6,-6) scale(1,1)">
			<path fill="none" stroke="#000000" d="M 144 40 L 232.3544921875 40 L 232.3544921875 79 L 144 79 L 144 40 Z Z" stroke-miterlimit="10"/>
		</g>
		<g transform="translate(-6,-6) scale(1,1)">
			<g>
				<path fill="none" stroke="none"/>
				<text fill="#000000" stroke="none" font-family="Arial" font-size="13px" font-style="normal" font-weight="bold" text-decoration="none" x="155.661376953125" y="59.5">: Employee</text>
			</g>
		</g>
		<g transform="translate(-6,-6) scale(1,1)">
			<path fill="none" stroke="#000000" d="M 189.5 80 L 189.5 328" stroke-miterlimit="10" stroke-dasharray="3"/>
		</g>
		<g transform="translate(-6,-6) scale(1,1)">
			<rect fill="#C0C0C0" stroke="none" x="287" y="47" width="167.078125" height="39" opacity="0.2"/>
		</g>
		<g transform="translate(-6,-6) scale(1,1)">
			<rect fill="#ffffff" stroke="none" x="280" y="40" width="167.078125" height="39"/>
		</g>
		<g transform="translate(-6,-6) scale(1,1)">
			<path fill="none" stroke="#000000" d="M 280 40 L 447.078125 40 L 447.078125 79 L 280 79 L 280 40 Z Z" stroke-miterlimit="10"/>
		</g>
		<g transform="translate(-6,-6) scale(1,1)">
			<g>
				<path fill="none" stroke="none"/>
				<text fill="#000000" stroke="none" font-family="Arial" font-size="13px" font-style="normal" font-weight="bold" text-decoration="none" x="293.813232421875" y="59.5">: CustomerManagement</text>
			</g>
		</g>
		<g transform="translate(-6,-6) scale(1,1)">
			<path fill="none" stroke="#000000" d="M 364.5 80 L 364.5 328" stroke-miterlimit="10" stroke-dasharray="3"/>
		</g>
		<g transform="translate(-6,-6) scale(1,1)">
			<rect fill="#C0C0C0" stroke="none" x="479" y="47" width="158.40087890625" height="39" opacity="0.2"/>
		</g>
		<g transform="translate(-6,-6) scale(1,1)">
			<rect fill="#ffffff" stroke="none" x="472" y="40" width="158.40087890625" height="39"/>
		</g>
		<g transform="translate(-6,-6) scale(1,1)">
			<path fill="none" stroke="#000000" d="M 472 40 L 630.40087890625 40 L 630.40087890625 79 L 472 79 L 472 40 Z Z" stroke-miterlimit="10"/>
		</g>
		<g transform="translate(-6,-6) scale(1,1)">
			<g>
				<path fill="none" stroke="none"/>
				<text fill="#000000" stroke="none" font-family="Arial" font-size="13px" font-style="normal" font-weight="bold" text-decoration="none" x="486.892333984375" y="59.5">o1 : CustomerAccount</text>
			</g>
		</g>
		<g transform="translate(-6,-6) scale(1,1)">
			<path fill="none" stroke="#000000" d="M 552.5 80 L 552.5 328" stroke-miterlimit="10" stroke-dasharray="3"/>
		</g>
		<g transform="translate(-6,-6) scale(1,1)">
			<path fill="none" stroke="#000000" d="M 189 112 L 357 112" stroke-miterlimit="10"/>
		</g>
		<g transform="translate(-6,-6) scale(1,1)">
			<path fill="#000000" stroke="none" d="M 346.83732514237585 116.20951775601598 L 357 112 L 346.83732514237585 107.79048224398402"/>
		</g>
		<g transform="translate(-6,-6) scale(1,1)">
			<path fill="none" stroke="#000000" d="M 346.83732514237585 116.20951775601598 L 357 112 L 346.83732514237585 107.79048224398402 L 346.83732514237585 116.20951775601598" stroke-miterlimit="10"/>
		</g>
		<g transform="translate(-6,-6) scale(1,1)">
			<g>
				<path fill="none" stroke="none"/>
				<text fill="#000000" stroke="none" font-family="Arial" font-size="13px" font-style="normal" font-weight="normal" text-decoration="none" x="224.5" y="108.5">1 : selectAcc(o1)</text>
			</g>
		</g>
		<g transform="translate(-6,-6) scale(1,1)">
			<rect fill="#ffffff" stroke="none" x="357" y="112" width="13" height="160"/>
		</g>
		<g transform="translate(-6,-6) scale(1,1)">
			<path fill="none" stroke="#000000" d="M 357 112 L 370 112 L 370 272 L 357 272 L 357 112 Z Z" stroke-miterlimit="10"/>
		</g>
		<g transform="translate(-6,-6) scale(1,1)">
			<path fill="none" stroke="#000000" d="M 370 129 L 545 129" stroke-miterlimit="10"/>
		</g>
		<g transform="translate(-6,-6) scale(1,1)">
			<path fill="#000000" stroke="none" d="M 534.8373251423759 133.209517756016 L 545 129 L 534.8373251423758 124.79048224398402"/>
		</g>
		<g transform="translate(-6,-6) scale(1,1)">
			<path fill="none" stroke="#000000" d="M 534.8373251423759 133.209517756016 L 545 129 L 534.8373251423758 124.79048224398402 L 534.8373251423759 133.209517756016" stroke-miterlimit="10"/>
		</g>
		<g transform="translate(-6,-6) scale(1,1)">
			<g>
				<path fill="none" stroke="none"/>
				<text fill="#000000" stroke="none" font-family="Arial" font-size="13px" font-style="normal" font-weight="normal" text-decoration="none" x="416.5" y="125.5">2 : getInfo(o1)</text>
			</g>
		</g>
		<g transform="translate(-6,-6) scale(1,1)">
			<rect fill="#ffffff" stroke="none" x="545" y="129" width="13" height="134"/>
		</g>
		<g transform="translate(-6,-6) scale(1,1)">
			<path fill="none" stroke="#000000" d="M 545 129 L 558 129 L 558 263 L 545 263 L 545 129 Z Z" stroke-miterlimit="10"/>
		</g>
		<g transform="translate(-6,-6) scale(1,1)">
			<path fill="none" stroke="#000000" d="M 545 153 L 370 153" stroke-miterlimit="10" stroke-dasharray="3"/>
		</g>
		<g transform="translate(-6,-6) scale(1,1)">
			<path fill="none" stroke="#000000" d="M 380.16267485762415 148.790482243984 L 370 153 L 380.16267485762415 157.209517756016" stroke-miterlimit="10"/>
		</g>
		<g transform="translate(-6,-6) scale(1,1)">
			<g>
				<path fill="none" stroke="none"/>
				<text fill="#000000" stroke="none" font-family="Arial" font-size="13px" font-style="normal" font-weight="normal" text-decoration="none" x="446.5" y="169.5">3 : </text>
			</g>
		</g>
		<g transform="translate(-6,-6) scale(1,1)">
			<path fill="none" stroke="#000000" d="M 357 168 L 189 168" stroke-miterlimit="10" stroke-dasharray="3"/>
		</g>
		<g transform="translate(-6,-6) scale(1,1)">
			<path fill="none" stroke="#000000" d="M 199.16267485762415 163.790482243984 L 189 168 L 199.16267485762415 172.209517756016" stroke-miterlimit="10"/>
		</g>
		<g transform="translate(-6,-6) scale(1,1)">
			<g>
				<path fill="none" stroke="none"/>
				<text fill="#000000" stroke="none" font-family="Arial" font-size="13px" font-style="normal" font-weight="normal" text-decoration="none" x="226.5" y="184.5">4 : CA edit form</text>
			</g>
		</g>
		<g transform="translate(-6,-6) scale(1,1)">
			<path fill="none" stroke="#000000" d="M 189 208 L 364 208" stroke-miterlimit="10"/>
		</g>
		<g transform="translate(-6,-6) scale(1,1)">
			<path fill="none" stroke="#000000" d="M 353.83732514237585 212.209517756016 L 364 208 L 353.83732514237585 203.790482243984" stroke-miterlimit="10"/>
		</g>
		<g transform="translate(-6,-6) scale(1,1)">
			<g>
				<path fill="none" stroke="none"/>
				<text fill="#000000" stroke="none" font-family="Arial" font-size="13px" font-style="normal" font-weight="normal" text-decoration="none" x="219.5" y="204.5">5 : commit changes</text>
			</g>
		</g>
		<g transform="translate(-6,-6) scale(1,1)">
			<rect fill="#ffffff" stroke="none" x="364" y="208" width="13" height="28"/>
		</g>
		<g transform="translate(-6,-6) scale(1,1)">
			<path fill="none" stroke="#000000" d="M 364 208 L 377 208 L 377 236 L 364 236 L 364 208 Z Z" stroke-miterlimit="10"/>
		</g>
		<g transform="translate(-6,-6) scale(1,1)">
			<path fill="none" stroke="#000000" d="M 377 232 L 552 232" stroke-miterlimit="10"/>
		</g>
		<g transform="translate(-6,-6) scale(1,1)">
			<path fill="none" stroke="#000000" d="M 541.8373251423759 236.209517756016 L 552 232 L 541.8373251423758 227.790482243984" stroke-miterlimit="10"/>
		</g>
		<g transform="translate(-6,-6) scale(1,1)">
			<g>
				<path fill="none" stroke="none"/>
				<text fill="#000000" stroke="none" font-family="Arial" font-size="13px" font-style="normal" font-weight="normal" text-decoration="none" x="430.647705078125" y="228.5">6 : setInfo()</text>
			</g>
		</g>
		<g transform="translate(-6,-6) scale(1,1)">
			<rect fill="#ffffff" stroke="none" x="552" y="232" width="13" height="28"/>
		</g>
		<g transform="translate(-6,-6) scale(1,1)">
			<path fill="none" stroke="#000000" d="M 552 232 L 565 232 L 565 260 L 552 260 L 552 232 Z Z" stroke-miterlimit="10"/>
		</g>
		<g transform="translate(-6,-6) scale(1,1)">
			<path fill="none" stroke="#000000" d="M 552 256 L 370 256" stroke-miterlimit="10" stroke-dasharray="3"/>
		</g>
		<g transform="translate(-6,-6) scale(1,1)">
			<path fill="none" stroke="#000000" d="M 380.16267485762415 251.790482243984 L 370 256 L 380.16267485762415 260.209517756016" stroke-miterlimit="10"/>
		</g>
		<g transform="translate(-6,-6) scale(1,1)">
			<g>
				<path fill="none" stroke="none"/>
				<text fill="#000000" stroke="none" font-family="Arial" font-size="13px" font-style="normal" font-weight="normal" text-decoration="none" x="450.5" y="272.5">7 : </text>
			</g>
		</g>
		<g transform="translate(-6,-6) scale(1,1)">
			<path fill="none" stroke="#000000" d="M 364 272 L 189 272" stroke-miterlimit="10" stroke-dasharray="3"/>
		</g>
		<g transform="translate(-6,-6) scale(1,1)">
			<path fill="none" stroke="#000000" d="M 199.16267485762415 267.790482243984 L 189 272 L 199.16267485762415 276.209517756016" stroke-miterlimit="10"/>
		</g>
		<g transform="translate(-6,-6) scale(1,1)">
			<g>
				<path fill="none" stroke="none"/>
				<text fill="#000000" stroke="none" font-family="Arial" font-size="13px" font-style="normal" font-weight="normal" text-decoration="none" x="265.5" y="288.5">8 : </text>
			</g>
		</g>
	</g>
</svg>