<svg version="1.1" xmlns="http://www.w3.org/2000/svg" xmlns:xlink="http://www.w3.org/1999/xlink" width="711" height="348">
	<defs/>
	<g>
		<g transform="translate(2,2) scale(1,1)">
			<path fill="none" stroke="#000000" d="M 8 8 L 699 8 L 699 336 L 8 336 L 8 8" stroke-miterlimit="10"/>
		</g>
		<g transform="translate(2,2) scale(1,1)">
			<path fill="#ffffff" stroke="none" d="M 8 8 L 8 30 L 276.154296875 30 L 287.154296875 19 L 287.154296875 8 L 8 8"/>
		</g>
		<g transform="translate(2,2) scale(1,1)">
			<path fill="none" stroke="#000000" d="M 8 8 L 8 30 L 276.154296875 30 L 287.154296875 19 L 287.154296875 8 L 8 8 L 8 8" stroke-miterlimit="10"/>
		</g>
		<g transform="translate(2,2) scale(1,1)">
			<g>
				<path fill="none" stroke="none"/>
				<text fill="#000000" stroke="none" font-family="Arial" font-size="13px" font-style="normal" font-weight="normal" text-decoration="none" x="32.72998046875" y="25.5">UC0610 view OPEN and INOVEN Pizzas</text>
			</g>
		</g>
		<g transform="translate(2,2) scale(1,1)">
			<g>
				<path fill="none" stroke="none"/>
				<text fill="#000000" stroke="none" font-family="Arial" font-size="13px" font-style="normal" font-weight="bold" text-decoration="none" x="13" y="25.5">sd</text>
			</g>
		</g>
		<g transform="translate(2,2) scale(1,1)">
			<rect fill="#C0C0C0" stroke="none" x="159" y="47" width="88.3544921875" height="39" opacity="0.2"/>
		</g>
		<g transform="translate(2,2) scale(1,1)">
			<rect fill="#ffffff" stroke="none" x="152" y="40" width="88.3544921875" height="39"/>
		</g>
		<g transform="translate(2,2) scale(1,1)">
			<path fill="none" stroke="#000000" d="M 152 40 L 240.3544921875 40 L 240.3544921875 79 L 152 79 L 152 40 Z Z" stroke-miterlimit="10"/>
		</g>
		<g transform="translate(2,2) scale(1,1)">
			<g>
				<path fill="none" stroke="none"/>
				<text fill="#000000" stroke="none" font-family="Arial" font-size="13px" font-style="normal" font-weight="bold" text-decoration="none" x="163.661376953125" y="59.5">: Employee</text>
			</g>
		</g>
		<g transform="translate(2,2) scale(1,1)">
			<path fill="none" stroke="#000000" d="M 197.5 80 L 197.5 296" stroke-miterlimit="10" stroke-dasharray="3"/>
		</g>
		<g transform="translate(2,2) scale(1,1)">
			<rect fill="#C0C0C0" stroke="none" x="351" y="47" width="120.87353515625" height="39" opacity="0.2"/>
		</g>
		<g transform="translate(2,2) scale(1,1)">
			<rect fill="#ffffff" stroke="none" x="344" y="40" width="120.87353515625" height="39"/>
		</g>
		<g transform="translate(2,2) scale(1,1)">
			<path fill="none" stroke="#000000" d="M 344 40 L 464.87353515625 40 L 464.87353515625 79 L 344 79 L 344 40 Z Z" stroke-miterlimit="10"/>
		</g>
		<g transform="translate(2,2) scale(1,1)">
			<g>
				<path fill="none" stroke="none"/>
				<text fill="#000000" stroke="none" font-family="Arial" font-size="13px" font-style="normal" font-weight="bold" text-decoration="none" x="357.470458984375" y="59.5">: KitchenService</text>
			</g>
		</g>
		<g transform="translate(2,2) scale(1,1)">
			<path fill="none" stroke="#000000" d="M 405.5 80 L 405.5 296" stroke-miterlimit="10" stroke-dasharray="3"/>
		</g>
		<g transform="translate(2,2) scale(1,1)">
			<rect fill="#C0C0C0" stroke="none" x="551" y="47" width="130.24267578125" height="39" opacity="0.2"/>
		</g>
		<g transform="translate(2,2) scale(1,1)">
			<rect fill="#ffffff" stroke="none" x="544" y="40" width="130.24267578125" height="39"/>
		</g>
		<g transform="translate(2,2) scale(1,1)">
			<path fill="none" stroke="#000000" d="M 544 40 L 674.24267578125 40 L 674.24267578125 79 L 544 79 L 544 40 Z Z" stroke-miterlimit="10"/>
		</g>
		<g transform="translate(2,2) scale(1,1)">
			<g>
				<path fill="none" stroke="none"/>
				<text fill="#000000" stroke="none" font-family="Arial" font-size="13px" font-style="normal" font-weight="bold" text-decoration="none" x="557.825927734375" y="59.5">: OrderRepository</text>
			</g>
		</g>
		<g transform="translate(2,2) scale(1,1)">
			<path fill="none" stroke="#000000" d="M 610.5 80 L 610.5 295" stroke-miterlimit="10" stroke-dasharray="3"/>
		</g>
		<g transform="translate(2,2) scale(1,1)">
			<path fill="none" stroke="#000000" d="M 197 104 L 398 104" stroke-miterlimit="10"/>
		</g>
		<g transform="translate(2,2) scale(1,1)">
			<path fill="#000000" stroke="none" d="M 387.83732514237585 108.20951775601598 L 398 104 L 387.83732514237585 99.79048224398402"/>
		</g>
		<g transform="translate(2,2) scale(1,1)">
			<path fill="none" stroke="#000000" d="M 387.83732514237585 108.20951775601598 L 398 104 L 387.83732514237585 99.79048224398402 L 387.83732514237585 108.20951775601598" stroke-miterlimit="10"/>
		</g>
		<g transform="translate(2,2) scale(1,1)">
			<g>
				<path fill="none" stroke="none"/>
				<text fill="#000000" stroke="none" font-family="Arial" font-size="13px" font-style="normal" font-weight="normal" text-decoration="none" x="226.5" y="100.5">1 : getAllKitchenPizzas()</text>
			</g>
		</g>
		<g transform="translate(2,2) scale(1,1)">
			<rect fill="#ffffff" stroke="none" x="398" y="104" width="13" height="152"/>
		</g>
		<g transform="translate(2,2) scale(1,1)">
			<path fill="none" stroke="#000000" d="M 398 104 L 411 104 L 411 256 L 398 256 L 398 104 Z Z" stroke-miterlimit="10"/>
		</g>
		<g transform="translate(2,2) scale(1,1)">
			<path fill="none" stroke="#000000" d="M 411 129 L 603 129" stroke-miterlimit="10"/>
		</g>
		<g transform="translate(2,2) scale(1,1)">
			<path fill="#000000" stroke="none" d="M 592.8373251423759 133.209517756016 L 603 129 L 592.8373251423758 124.79048224398402"/>
		</g>
		<g transform="translate(2,2) scale(1,1)">
			<path fill="none" stroke="#000000" d="M 592.8373251423759 133.209517756016 L 603 129 L 592.8373251423758 124.79048224398402 L 592.8373251423759 133.209517756016" stroke-miterlimit="10"/>
		</g>
		<g transform="translate(2,2) scale(1,1)">
			<g>
				<path fill="none" stroke="none"/>
				<text fill="#000000" stroke="none" font-family="Arial" font-size="13px" font-style="normal" font-weight="normal" text-decoration="none" x="424.5" y="125.5">2 : getPizzasByState(OPEN)</text>
			</g>
		</g>
		<g transform="translate(2,2) scale(1,1)">
			<rect fill="#ffffff" stroke="none" x="603" y="129" width="13" height="119"/>
		</g>
		<g transform="translate(2,2) scale(1,1)">
			<path fill="none" stroke="#000000" d="M 603 129 L 616 129 L 616 248 L 603 248 L 603 129 Z Z" stroke-miterlimit="10"/>
		</g>
		<g transform="translate(2,2) scale(1,1)">
			<path fill="none" stroke="#000000" d="M 603 153 L 411 153" stroke-miterlimit="10" stroke-dasharray="3"/>
		</g>
		<g transform="translate(2,2) scale(1,1)">
			<path fill="none" stroke="#000000" d="M 421.16267485762415 148.790482243984 L 411 153 L 421.16267485762415 157.209517756016" stroke-miterlimit="10"/>
		</g>
		<g transform="translate(2,2) scale(1,1)">
			<g>
				<path fill="none" stroke="none"/>
				<text fill="#000000" stroke="none" font-family="Arial" font-size="13px" font-style="normal" font-weight="normal" text-decoration="none" x="496.5" y="169.5">3 :</text>
			</g>
		</g>
		<g transform="translate(2,2) scale(1,1)">
			<path fill="none" stroke="#000000" d="M 411 192 L 610 192" stroke-miterlimit="10"/>
		</g>
		<g transform="translate(2,2) scale(1,1)">
			<path fill="#000000" stroke="none" d="M 599.8373251423759 196.209517756016 L 610 192 L 599.8373251423758 187.790482243984"/>
		</g>
		<g transform="translate(2,2) scale(1,1)">
			<path fill="none" stroke="#000000" d="M 599.8373251423759 196.209517756016 L 610 192 L 599.8373251423758 187.790482243984 L 599.8373251423759 196.209517756016" stroke-miterlimit="10"/>
		</g>
		<g transform="translate(2,2) scale(1,1)">
			<g>
				<path fill="none" stroke="none"/>
				<text fill="#000000" stroke="none" font-family="Arial" font-size="13px" font-style="normal" font-weight="normal" text-decoration="none" x="420.5" y="188.5">4 : getPizzasByState(INOVEN)</text>
			</g>
		</g>
		<g transform="translate(2,2) scale(1,1)">
			<rect fill="#ffffff" stroke="none" x="610" y="192" width="13" height="28"/>
		</g>
		<g transform="translate(2,2) scale(1,1)">
			<path fill="none" stroke="#000000" d="M 610 192 L 623 192 L 623 220 L 610 220 L 610 192 Z Z" stroke-miterlimit="10"/>
		</g>
		<g transform="translate(2,2) scale(1,1)">
			<path fill="none" stroke="#000000" d="M 603 224 L 411 224" stroke-miterlimit="10" stroke-dasharray="3"/>
		</g>
		<g transform="translate(2,2) scale(1,1)">
			<path fill="none" stroke="#000000" d="M 421.16267485762415 219.790482243984 L 411 224 L 421.16267485762415 228.209517756016" stroke-miterlimit="10"/>
		</g>
		<g transform="translate(2,2) scale(1,1)">
			<g>
				<path fill="none" stroke="none"/>
				<text fill="#000000" stroke="none" font-family="Arial" font-size="13px" font-style="normal" font-weight="normal" text-decoration="none" x="496.5" y="240.5">5 :</text>
			</g>
		</g>
		<g transform="translate(2,2) scale(1,1)">
			<path fill="none" stroke="#000000" d="M 398 248 L 197 248" stroke-miterlimit="10" stroke-dasharray="3"/>
		</g>
		<g transform="translate(2,2) scale(1,1)">
			<path fill="none" stroke="#000000" d="M 207.16267485762415 243.790482243984 L 197 248 L 207.16267485762415 252.209517756016" stroke-miterlimit="10"/>
		</g>
		<g transform="translate(2,2) scale(1,1)">
			<g>
				<path fill="none" stroke="none"/>
				<text fill="#000000" stroke="none" font-family="Arial" font-size="13px" font-style="normal" font-weight="normal" text-decoration="none" x="286.5" y="264.5">6 :</text>
			</g>
		</g>
	</g>
</svg>
