<svg version="1.1" xmlns="http://www.w3.org/2000/svg" xmlns:xlink="http://www.w3.org/1999/xlink" width="1132" height="611">
	<defs/>
	<g>
		<g transform="translate(2,2) scale(1,1)">
			<path fill="none" stroke="#000000" d="M 8 8 L 1120 8 L 1120 599 L 8 599 L 8 8" stroke-miterlimit="10"/>
		</g>
		<g transform="translate(2,2) scale(1,1)">
			<path fill="#ffffff" stroke="none" d="M 8 8 L 8 30 L 128.7490234375 30 L 139.7490234375 19 L 139.7490234375 8 L 8 8"/>
		</g>
		<g transform="translate(2,2) scale(1,1)">
			<path fill="none" stroke="#000000" d="M 8 8 L 8 30 L 128.7490234375 30 L 139.7490234375 19 L 139.7490234375 8 L 8 8 L 8 8" stroke-miterlimit="10"/>
		</g>
		<g transform="translate(2,2) scale(1,1)">
			<g>
				<path fill="none" stroke="none"/>
				<text fill="#000000" stroke="none" font-family="Arial" font-size="13px" font-style="normal" font-weight="normal" text-decoration="none" x="32.72998046875" y="25.5">verify Customer</text>
			</g>
		</g>
		<g transform="translate(2,2) scale(1,1)">
			<g>
				<path fill="none" stroke="none"/>
				<text fill="#000000" stroke="none" font-family="Arial" font-size="13px" font-style="normal" font-weight="bold" text-decoration="none" x="13" y="25.5">sd</text>
			</g>
		</g>
		<g transform="translate(2,2) scale(1,1)">
			<rect fill="#C0C0C0" stroke="none" x="55" y="47" width="84.74267578125" height="39" opacity="0.2"/>
		</g>
		<g transform="translate(2,2) scale(1,1)">
			<rect fill="#ffffff" stroke="none" x="48" y="40" width="84.74267578125" height="39"/>
		</g>
		<g transform="translate(2,2) scale(1,1)">
			<path fill="none" stroke="#000000" d="M 48 40 L 132.74267578125 40 L 132.74267578125 79 L 48 79 L 48 40 Z Z" stroke-miterlimit="10"/>
		</g>
		<g transform="translate(2,2) scale(1,1)">
			<g>
				<path fill="none" stroke="none"/>
				<text fill="#000000" stroke="none" font-family="Arial" font-size="13px" font-style="normal" font-weight="bold" text-decoration="none" x="59.661376953125" y="59.5">:Employee</text>
			</g>
		</g>
		<g transform="translate(2,2) scale(1,1)">
			<path fill="none" stroke="#000000" d="M 91.5 80 L 91.5 560" stroke-miterlimit="10" stroke-dasharray="3"/>
		</g>
		<g transform="translate(2,2) scale(1,1)">
			<rect fill="#C0C0C0" stroke="none" x="295" y="47" width="305.787109375" height="39" opacity="0.2"/>
		</g>
		<g transform="translate(2,2) scale(1,1)">
			<rect fill="#ffffff" stroke="none" x="288" y="40" width="305.787109375" height="39"/>
		</g>
		<g transform="translate(2,2) scale(1,1)">
			<path fill="none" stroke="#000000" d="M 288 40 L 593.787109375 40 L 593.787109375 79 L 288 79 L 288 40 Z Z" stroke-miterlimit="10"/>
		</g>
		<g transform="translate(2,2) scale(1,1)">
			<g>
				<path fill="none" stroke="none"/>
				<text fill="#000000" stroke="none" font-family="Arial" font-size="13px" font-style="normal" font-weight="bold" text-decoration="none" x="306.497802734375" y="59.5">customermanagement: CustomerManagement</text>
			</g>
		</g>
		<g transform="translate(2,2) scale(1,1)">
			<path fill="none" stroke="#000000" d="M 441.5 80 L 441.5 560" stroke-miterlimit="10" stroke-dasharray="3"/>
		</g>
		<g transform="translate(2,2) scale(1,1)">
			<rect fill="#C0C0C0" stroke="none" x="679" y="47" width="153.3671875" height="39" opacity="0.2"/>
		</g>
		<g transform="translate(2,2) scale(1,1)">
			<rect fill="#ffffff" stroke="none" x="672" y="40" width="153.3671875" height="39"/>
		</g>
		<g transform="translate(2,2) scale(1,1)">
			<path fill="none" stroke="#000000" d="M 672 40 L 825.3671875 40 L 825.3671875 79 L 672 79 L 672 40 Z Z" stroke-miterlimit="10"/>
		</g>
		<g transform="translate(2,2) scale(1,1)">
			<g>
				<path fill="none" stroke="none"/>
				<text fill="#000000" stroke="none" font-family="Arial" font-size="13px" font-style="normal" font-weight="bold" text-decoration="none" x="686.552734375" y="59.5">customer1: Customer</text>
			</g>
		</g>
		<g transform="translate(2,2) scale(1,1)">
			<path fill="none" stroke="#000000" d="M 749.5 80 L 749.5 544" stroke-miterlimit="10" stroke-dasharray="3"/>
		</g>
		<g transform="translate(2,2) scale(1,1)">
			<rect fill="#ffffff" stroke="none" x="80" y="128" width="24" height="376"/>
		</g>
		<g transform="translate(2,2) scale(1,1)">
			<path fill="none" stroke="#000000" d="M 80 128 L 104 128 L 104 504 L 80 504 L 80 128 Z Z" stroke-miterlimit="10"/>
		</g>
		<g transform="translate(2,2) scale(1,1)">
			<rect fill="#ffffff" stroke="none" x="432" y="432" width="16" height="49"/>
		</g>
		<g transform="translate(2,2) scale(1,1)">
			<path fill="none" stroke="#000000" d="M 432 432 L 448 432 L 448 481 L 432 481 L 432 432 Z Z" stroke-miterlimit="10"/>
		</g>
		<g transform="translate(2,2) scale(1,1)">
			<path fill="none" stroke="#000000" d="M 91 152 L 434 152" stroke-miterlimit="10"/>
		</g>
		<g transform="translate(2,2) scale(1,1)">
			<path fill="#000000" stroke="none" d="M 423.83732514237585 156.209517756016 L 434 152 L 423.83732514237585 147.790482243984"/>
		</g>
		<g transform="translate(2,2) scale(1,1)">
			<path fill="none" stroke="#000000" d="M 423.83732514237585 156.209517756016 L 434 152 L 423.83732514237585 147.790482243984 L 423.83732514237585 156.209517756016" stroke-miterlimit="10"/>
		</g>
		<g transform="translate(2,2) scale(1,1)">
			<g>
				<path fill="none" stroke="none"/>
				<text fill="#000000" stroke="none" font-family="Arial" font-size="13px" font-style="normal" font-weight="normal" text-decoration="none" x="168.5" y="148.5">1 : verifyPhonenumberAndTAN()</text>
			</g>
		</g>
		<g transform="translate(2,2) scale(1,1)">
			<rect fill="#ffffff" stroke="none" x="434" y="152" width="13" height="216"/>
		</g>
		<g transform="translate(2,2) scale(1,1)">
			<path fill="none" stroke="#000000" d="M 434 152 L 447 152 L 447 368 L 434 368 L 434 152 Z Z" stroke-miterlimit="10"/>
		</g>
		<g transform="translate(2,2) scale(1,1)">
			<path fill="none" stroke="#000000" d="M 447 160 L 477 160 L 477 180 L 454 180" stroke-miterlimit="10"/>
		</g>
		<g transform="translate(2,2) scale(1,1)">
			<path fill="#000000" stroke="none" d="M 464.16267485762415 175.790482243984 L 454 180 L 464.16267485762415 184.209517756016"/>
		</g>
		<g transform="translate(2,2) scale(1,1)">
			<path fill="none" stroke="#000000" d="M 464.16267485762415 175.790482243984 L 454 180 L 464.16267485762415 184.209517756016 L 464.16267485762415 175.790482243984" stroke-miterlimit="10"/>
		</g>
		<g transform="translate(2,2) scale(1,1)">
			<g>
				<path fill="none" stroke="none"/>
				<text fill="#000000" stroke="none" font-family="Arial" font-size="13px" font-style="normal" font-weight="normal" text-decoration="none" x="383.5" y="175.5">2 : findCustomerWithPhoneNumber</text>
			</g>
		</g>
		<g transform="translate(2,2) scale(1,1)">
			<rect fill="#ffffff" stroke="none" x="441" y="180" width="13" height="44"/>
		</g>
		<g transform="translate(2,2) scale(1,1)">
			<path fill="none" stroke="#000000" d="M 441 180 L 454 180 L 454 224 L 441 224 L 441 180 Z Z" stroke-miterlimit="10"/>
		</g>
		<g transform="translate(2,2) scale(1,1)">
			<path fill="none" stroke="#000000" d="M 454 208 L 742 208" stroke-miterlimit="10"/>
		</g>
		<g transform="translate(2,2) scale(1,1)">
			<path fill="#000000" stroke="none" d="M 731.8373251423759 212.209517756016 L 742 208 L 731.8373251423758 203.790482243984"/>
		</g>
		<g transform="translate(2,2) scale(1,1)">
			<path fill="none" stroke="#000000" d="M 731.8373251423759 212.209517756016 L 742 208 L 731.8373251423758 203.790482243984 L 731.8373251423759 212.209517756016" stroke-miterlimit="10"/>
		</g>
		<g transform="translate(2,2) scale(1,1)">
			<g>
				<path fill="none" stroke="none"/>
				<text fill="#000000" stroke="none" font-family="Arial" font-size="13px" font-style="normal" font-weight="normal" text-decoration="none" x="562.60693359375" y="204.5">3 : getTAN()</text>
			</g>
		</g>
		<g transform="translate(2,2) scale(1,1)">
			<rect fill="#ffffff" stroke="none" x="742" y="208" width="13" height="88"/>
		</g>
		<g transform="translate(2,2) scale(1,1)">
			<path fill="none" stroke="#000000" d="M 742 208 L 755 208 L 755 296 L 742 296 L 742 208 Z Z" stroke-miterlimit="10"/>
		</g>
		<g transform="translate(2,2) scale(1,1)">
			<path fill="none" stroke="#000000" d="M 742 278 L 447 278" stroke-miterlimit="10" stroke-dasharray="3"/>
		</g>
		<g transform="translate(2,2) scale(1,1)">
			<path fill="none" stroke="#000000" d="M 457.16267485762415 273.790482243984 L 447 278 L 457.16267485762415 282.209517756016" stroke-miterlimit="10"/>
		</g>
		<g transform="translate(2,2) scale(1,1)">
			<g>
				<path fill="none" stroke="none"/>
				<text fill="#000000" stroke="none" font-family="Arial" font-size="13px" font-style="normal" font-weight="normal" text-decoration="none" x="571.5" y="294.5">4 : TAN</text>
			</g>
		</g>
		<g transform="translate(2,2) scale(1,1)">
			<path fill="none" stroke="#000000" d="M 434 336 L 91 336" stroke-miterlimit="10" stroke-dasharray="3"/>
		</g>
		<g transform="translate(2,2) scale(1,1)">
			<path fill="none" stroke="#000000" d="M 101.16267485762415 331.790482243984 L 91 336 L 101.16267485762415 340.209517756016" stroke-miterlimit="10"/>
		</g>
		<g transform="translate(2,2) scale(1,1)">
			<g>
				<path fill="none" stroke="none"/>
				<text fill="#000000" stroke="none" font-family="Arial" font-size="13px" font-style="normal" font-weight="normal" text-decoration="none" x="238.5" y="352.5">5 : True</text>
			</g>
		</g>
		<g transform="translate(2,2) scale(1,1)">
			<path fill="none" stroke="#000000" d="M 441 449 L 91 449" stroke-miterlimit="10" stroke-dasharray="3"/>
		</g>
		<g transform="translate(2,2) scale(1,1)">
			<path fill="none" stroke="#000000" d="M 101.16267485762415 444.790482243984 L 91 449 L 101.16267485762415 453.209517756016" stroke-miterlimit="10"/>
		</g>
		<g transform="translate(2,2) scale(1,1)">
			<g>
				<path fill="none" stroke="none"/>
				<text fill="#000000" stroke="none" font-family="Arial" font-size="13px" font-style="normal" font-weight="normal" text-decoration="none" x="240.5" y="465.5">6 : False</text>
			</g>
		</g>
		<g transform="translate(2,2) scale(1,1)">
			<path fill="none" stroke="#000000" d="M 288 256 L 552 256 L 552 512 L 288 512 L 288 256" stroke-miterlimit="10"/>
		</g>
		<g transform="translate(2,2) scale(1,1)">
			<path fill="#ffffff" stroke="none" d="M 288 256 L 288 278 L 338.68994140625 278 L 349.68994140625 267 L 349.68994140625 256 L 288 256"/>
		</g>
		<g transform="translate(2,2) scale(1,1)">
			<path fill="none" stroke="#000000" d="M 288 256 L 288 278 L 338.68994140625 278 L 349.68994140625 267 L 349.68994140625 256 L 288 256 L 288 256" stroke-miterlimit="10"/>
		</g>
		<g transform="translate(2,2) scale(1,1)">
			<g>
				<path fill="none" stroke="none"/>
				<text fill="#000000" stroke="none" font-family="Arial" font-size="13px" font-style="normal" font-weight="normal" text-decoration="none" x="319.9599609375" y="273.5">alt</text>
			</g>
		</g>
		<g transform="translate(2,2) scale(1,1)">
			<g>
				<path fill="none" stroke="none"/>
				<text fill="#000000" stroke="none" font-family="Arial" font-size="13px" font-style="normal" font-weight="bold" text-decoration="none" x="293" y="273.5">seq</text>
			</g>
		</g>
		<g transform="translate(2,2) scale(1,1)">
			<g>
				<path fill="none" stroke="none"/>
				<text fill="#000000" stroke="none" font-family="Arial" font-size="13px" font-style="normal" font-weight="normal" text-decoration="none" x="307.5" y="306.5">[If TANs are matching]</text>
			</g>
		</g>
		<g transform="translate(2,2) scale(1,1)">
			<path fill="none" stroke="#000000" d="M 288 393 L 552 393" stroke-miterlimit="10" stroke-dasharray="10,3"/>
		</g>
		<g transform="translate(2,2) scale(1,1)">
			<g>
				<path fill="none" stroke="none"/>
				<text fill="#000000" stroke="none" font-family="Arial" font-size="13px" font-style="normal" font-weight="normal" text-decoration="none" x="307.5" y="420.5">[else]</text>
			</g>
		</g>
	</g>
</svg>
