<svg version="1.1" xmlns="http://www.w3.org/2000/svg" xmlns:xlink="http://www.w3.org/1999/xlink" width="1276" height="331">
	<defs/>
	<g>
		
		<g transform="translate(-30,-46) scale(1,1)">
			<rect fill="#ffffff" stroke="none" x="40" y="64" width="175" height="303"/>
		</g>
		<g transform="translate(-30,-46) scale(1,1)">
			<path fill="none" stroke="#000000" d="M 40 64 L 215 64 L 215 367 L 40 367 L 40 64 Z Z" stroke-miterlimit="10"/>
		</g>
		<g transform="translate(-30,-46) scale(1,1)">
			<g>
				<path fill="none" stroke="none"/>
				<text fill="#000000" stroke="none" font-family="Arial" font-size="13px" font-style="normal" font-weight="normal" text-decoration="none" x="110.8818359375" y="82">Client</text>
			</g>
		</g>
		<g transform="translate(-30,-46) scale(1,1)">
			<rect fill="#ffffff" stroke="none" x="96" y="144" width="72" height="48"/>
		</g>
		<g transform="translate(-30,-46) scale(1,1)">
			<path fill="none" stroke="#000000" d="M 96 144 L 168 144 L 168 192 L 96 192 L 96 144 Z Z" stroke-miterlimit="10"/>
		</g>
		<g transform="translate(-30,-46) scale(1,1)">
			<g>
				<path fill="none" stroke="none"/>
				<text fill="#000000" stroke="none" font-family="Arial" font-size="13px" font-style="normal" font-weight="normal" text-decoration="none" x="114.305908203125" y="162">HTML</text>
			</g>
		</g>
		<g transform="translate(-30,-46) scale(1,1)">
			<rect fill="#ffffff" stroke="none" x="96" y="224" width="71" height="48"/>
		</g>
		<g transform="translate(-30,-46) scale(1,1)">
			<path fill="none" stroke="#000000" d="M 96 224 L 167 224 L 167 272 L 96 272 L 96 224 Z Z" stroke-miterlimit="10"/>
		</g>
		<g transform="translate(-30,-46) scale(1,1)">
			<g>
				<path fill="none" stroke="none"/>
				<text fill="#000000" stroke="none" font-family="Arial" font-size="13px" font-style="normal" font-weight="normal" text-decoration="none" x="118.135009765625" y="242">CSS</text>
			</g>
		</g>
		<g transform="translate(-30,-46) scale(1,1)">
			<rect fill="#ffffff" stroke="none" x="280" y="56" width="1016" height="303"/>
		</g>
		<g transform="translate(-30,-46) scale(1,1)">
			<path fill="none" stroke="#000000" d="M 280 56 L 1296 56 L 1296 359 L 280 359 L 280 56 Z Z" stroke-miterlimit="10"/>
		</g>
		<g transform="translate(-30,-46) scale(1,1)">
			<g>
				<path fill="none" stroke="none"/>
				<text fill="#000000" stroke="none" font-family="Arial" font-size="13px" font-style="normal" font-weight="normal" text-decoration="none" x="768.85546875" y="74">Server</text>
			</g>
		</g>
		<g transform="translate(-30,-46) scale(1,1)">
			<rect fill="#ffffff" stroke="none" x="320" y="184" width="111" height="48"/>
		</g>
		<g transform="translate(-30,-46) scale(1,1)">
			<path fill="none" stroke="#000000" d="M 320 184 L 431 184 L 431 232 L 320 232 L 320 184 Z Z" stroke-miterlimit="10"/>
		</g>
		<g transform="translate(-30,-46) scale(1,1)">
			<g>
				<path fill="none" stroke="none"/>
				<text fill="#000000" stroke="none" font-family="Arial" font-size="13px" font-style="normal" font-weight="normal" text-decoration="none" x="345.155029296875" y="202">Thymeleaf</text>
			</g>
		</g>
		<g transform="translate(-30,-46) scale(1,1)">
			<path fill="none" stroke="#000000" d="M 320 208 L 168 168" stroke-miterlimit="10"/>
		</g>
		<g transform="translate(-30,-46) scale(1,1)">
			<path fill="none" stroke="#000000" d="M 178.89935814739235 166.515415218025 L 168 168 L 176.75677002318287 174.6572500900211" stroke-miterlimit="10"/>
		</g>
		<g transform="translate(-30,-46) scale(1,1)">
			<path fill="none" stroke="#000000" d="M 168 248 L 320 208" stroke-miterlimit="10"/>
		</g>
		<g transform="translate(-30,-46) scale(1,1)">
			<path fill="none" stroke="#000000" d="M 176.75677002318287 241.3427499099789 L 168 248 L 178.89935814739235 249.484584781975" stroke-miterlimit="10"/>
		</g>
		<g transform="translate(-30,-46) scale(1,1)">
			<rect fill="#ffffff" stroke="none" x="504" y="120" width="616" height="208"/>
		</g>
		<g transform="translate(-30,-46) scale(1,1)">
			<path fill="none" stroke="#000000" d="M 504 120 L 1120 120 L 1120 328 L 504 328 L 504 120 Z Z" stroke-miterlimit="10"/>
		</g>
		<g transform="translate(-30,-46) scale(1,1)">
			<g>
				<path fill="none" stroke="none"/>
				<text fill="#000000" stroke="none" font-family="Arial" font-size="13px" font-style="normal" font-weight="normal" text-decoration="none" x="762.8564453125" y="138">Application Logic</text>
			</g>
		</g>
		<g transform="translate(-30,-46) scale(1,1)">
			<rect fill="#ffffff" stroke="none" x="1168" y="168" width="95" height="79"/>
		</g>
		<g transform="translate(-30,-46) scale(1,1)">
			<path fill="none" stroke="#000000" d="M 1168 168 L 1263 168 L 1263 247 L 1168 247 L 1168 168 Z Z" stroke-miterlimit="10"/>
		</g>
		<g transform="translate(-30,-46) scale(1,1)">
			<g>
				<path fill="none" stroke="none"/>
				<text fill="#000000" stroke="none" font-family="Arial" font-size="13px" font-style="normal" font-weight="normal" text-decoration="none" x="1207.19091796875" y="206">H2</text>
			</g>
		</g>
		<g transform="translate(-30,-46) scale(1,1)">
			<g>
				<path fill="none" stroke="none"/>
				<text fill="#000000" stroke="none" font-family="Arial" font-size="13px" font-style="normal" font-weight="normal" text-decoration="none" x="1187.675048828125" y="221">Database</text>
			</g>
		</g>
		<g transform="translate(-30,-46) scale(1,1)">
			<rect fill="#ffffff" stroke="none" x="528" y="152" width="151" height="160"/>
		</g>
		<g transform="translate(-30,-46) scale(1,1)">
			<path fill="none" stroke="#000000" d="M 528 152 L 679 152 L 679 312 L 528 312 L 528 152 Z Z" stroke-miterlimit="10"/>
		</g>
		<g transform="translate(-30,-46) scale(1,1)">
			<g>
				<path fill="none" stroke="none"/>
				<text fill="#000000" stroke="none" font-family="Arial" font-size="13px" font-style="normal" font-weight="normal" text-decoration="none" x="533" y="170">Controller:</text>
			</g>
		</g>
		<g transform="translate(-30,-46) scale(1,1)">
			<g>
				<path fill="none" stroke="none"/>
				<text fill="#000000" stroke="none" font-family="Arial" font-size="13px" font-style="normal" font-weight="normal" text-decoration="none" x="533" y="185"> - orderController</text>
			</g>
		</g>
		<g transform="translate(-30,-46) scale(1,1)">
			<g>
				<path fill="none" stroke="none"/>
				<text fill="#000000" stroke="none" font-family="Arial" font-size="13px" font-style="normal" font-weight="normal" text-decoration="none" x="533" y="200"> - kitchenController</text>
			</g>
		</g>
		<g transform="translate(-30,-46) scale(1,1)">
			<g>
				<path fill="none" stroke="none"/>
				<text fill="#000000" stroke="none" font-family="Arial" font-size="13px" font-style="normal" font-weight="normal" text-decoration="none" x="533" y="215"> - deliveryController</text>
			</g>
		</g>
		<g transform="translate(-30,-46) scale(1,1)">
			<g>
				<path fill="none" stroke="none"/>
				<text fill="#000000" stroke="none" font-family="Arial" font-size="13px" font-style="normal" font-weight="normal" text-decoration="none" x="533" y="230"> - newOrderController</text>
			</g>
		</g>
		<g transform="translate(-30,-46) scale(1,1)">
			<g>
				<path fill="none" stroke="none"/>
				<text fill="#000000" stroke="none" font-family="Arial" font-size="13px" font-style="normal" font-weight="normal" text-decoration="none" x="533" y="245"> - customerController</text>
			</g>
		</g>
		<g transform="translate(-30,-46) scale(1,1)">
			<g>
				<path fill="none" stroke="none"/>
				<text fill="#000000" stroke="none" font-family="Arial" font-size="13px" font-style="normal" font-weight="normal" text-decoration="none" x="533" y="260"> - employeeController</text>
			</g>
		</g>
		<g transform="translate(-30,-46) scale(1,1)">
			<g>
				<path fill="none" stroke="none"/>
				<text fill="#000000" stroke="none" font-family="Arial" font-size="13px" font-style="normal" font-weight="normal" text-decoration="none" x="533" y="275"> - inventoryController</text>
			</g>
		</g>
		<g transform="translate(-30,-46) scale(1,1)">
			<g>
				<path fill="none" stroke="none"/>
				<text fill="#000000" stroke="none" font-family="Arial" font-size="13px" font-style="normal" font-weight="normal" text-decoration="none" x="533" y="290"> - analyticsController</text>
			</g>
		</g>
		<g transform="translate(-30,-46) scale(1,1)">
			<rect fill="#ffffff" stroke="none" x="688" y="152" width="71" height="48"/>
		</g>
		<g transform="translate(-30,-46) scale(1,1)">
			<path fill="none" stroke="#000000" d="M 688 152 L 759 152 L 759 200 L 688 200 L 688 152 Z Z" stroke-miterlimit="10"/>
		</g>
		<g transform="translate(-30,-46) scale(1,1)">
			<g>
				<path fill="none" stroke="none"/>
				<text fill="#000000" stroke="none" font-family="Arial" font-size="13px" font-style="normal" font-weight="normal" text-decoration="none" x="706.885009765625" y="182">Order</text>
			</g>
		</g>
		<g transform="translate(-30,-46) scale(1,1)">
			<rect fill="#ffffff" stroke="none" x="688" y="264" width="71" height="48"/>
		</g>
		<g transform="translate(-30,-46) scale(1,1)">
			<path fill="none" stroke="#000000" d="M 688 264 L 759 264 L 759 312 L 688 312 L 688 264 Z Z" stroke-miterlimit="10"/>
		</g>
		<g transform="translate(-30,-46) scale(1,1)">
			<g>
				<path fill="none" stroke="none"/>
				<text fill="#000000" stroke="none" font-family="Arial" font-size="13px" font-style="normal" font-weight="normal" text-decoration="none" x="696.763671875" y="294">Inventory</text>
			</g>
		</g>
		<g transform="translate(-30,-46) scale(1,1)">
			<rect fill="#ffffff" stroke="none" x="848" y="208" width="71" height="48"/>
		</g>
		<g transform="translate(-30,-46) scale(1,1)">
			<path fill="none" stroke="#000000" d="M 848 208 L 919 208 L 919 256 L 848 256 L 848 208 Z Z" stroke-miterlimit="10"/>
		</g>
		<g transform="translate(-30,-46) scale(1,1)">
			<g>
				<path fill="none" stroke="none"/>
				<text fill="#000000" stroke="none" font-family="Arial" font-size="13px" font-style="normal" font-weight="normal" text-decoration="none" x="854.595947265625" y="238">Employee</text>
			</g>
		</g>
		<g transform="translate(-30,-46) scale(1,1)">
			<rect fill="#ffffff" stroke="none" x="768" y="208" width="71" height="48"/>
		</g>
		<g transform="translate(-30,-46) scale(1,1)">
			<path fill="none" stroke="#000000" d="M 768 208 L 839 208 L 839 256 L 768 256 L 768 208 Z Z" stroke-miterlimit="10"/>
		</g>
		<g transform="translate(-30,-46) scale(1,1)">
			<g>
				<path fill="none" stroke="none"/>
				<text fill="#000000" stroke="none" font-family="Arial" font-size="13px" font-style="normal" font-weight="normal" text-decoration="none" x="775.325927734375" y="238">Customer</text>
			</g>
		</g>
		<g transform="translate(-30,-46) scale(1,1)">
			<rect fill="#ffffff" stroke="none" x="848" y="152" width="71" height="48"/>
		</g>
		<g transform="translate(-30,-46) scale(1,1)">
			<path fill="none" stroke="#000000" d="M 848 152 L 919 152 L 919 200 L 848 200 L 848 152 Z Z" stroke-miterlimit="10"/>
		</g>
		<g transform="translate(-30,-46) scale(1,1)">
			<g>
				<path fill="none" stroke="none"/>
				<text fill="#000000" stroke="none" font-family="Arial" font-size="13px" font-style="normal" font-weight="normal" text-decoration="none" x="860.023193359375" y="182">Delivery</text>
			</g>
		</g>
		<g transform="translate(-30,-46) scale(1,1)">
			<rect fill="#ffffff" stroke="none" x="768" y="264" width="71" height="48"/>
		</g>
		<g transform="translate(-30,-46) scale(1,1)">
			<path fill="none" stroke="#000000" d="M 768 264 L 839 264 L 839 312 L 768 312 L 768 264 Z Z" stroke-miterlimit="10"/>
		</g>
		<g transform="translate(-30,-46) scale(1,1)">
			<g>
				<path fill="none" stroke="none"/>
				<text fill="#000000" stroke="none" font-family="Arial" font-size="13px" font-style="normal" font-weight="normal" text-decoration="none" x="777.490478515625" y="294">Analytics</text>
			</g>
		</g>
		<g transform="translate(-30,-46) scale(1,1)">
			<rect fill="#ffffff" stroke="none" x="768" y="152" width="71" height="48"/>
		</g>
		<g transform="translate(-30,-46) scale(1,1)">
			<path fill="none" stroke="#000000" d="M 768 152 L 839 152 L 839 200 L 768 200 L 768 152 Z Z" stroke-miterlimit="10"/>
		</g>
		<g transform="translate(-30,-46) scale(1,1)">
			<g>
				<path fill="none" stroke="none"/>
				<text fill="#000000" stroke="none" font-family="Arial" font-size="13px" font-style="normal" font-weight="normal" text-decoration="none" x="781.819580078125" y="182">Kitchen</text>
			</g>
		</g>
		<g transform="translate(-30,-46) scale(1,1)">
			<rect fill="#ffffff" stroke="none" x="688" y="208" width="71" height="48"/>
		</g>
		<g transform="translate(-30,-46) scale(1,1)">
			<path fill="none" stroke="#000000" d="M 688 208 L 759 208 L 759 256 L 688 256 L 688 208 Z Z" stroke-miterlimit="10"/>
		</g>
		<g transform="translate(-30,-46) scale(1,1)">
			<g>
				<path fill="none" stroke="none"/>
				<text fill="#000000" stroke="none" font-family="Arial" font-size="13px" font-style="normal" font-weight="normal" text-decoration="none" x="693.8818359375" y="238">NewOrder</text>
			</g>
		</g>
		<g transform="translate(-30,-46) scale(1,1)">
			<path fill="none" stroke="#000000" d="M 528 208 L 432 208" stroke-miterlimit="10"/>
		</g>
		<g transform="translate(-30,-46) scale(1,1)">
			<path fill="none" stroke="#000000" d="M 442.16267485762415 203.790482243984 L 432 208 L 442.16267485762415 212.209517756016" stroke-miterlimit="10"/>
		</g>
		<g transform="translate(-30,-46) scale(1,1)">
			<rect fill="#ffffff" stroke="none" x="944" y="152" width="160" height="159"/>
		</g>
		<g transform="translate(-30,-46) scale(1,1)">
			<path fill="none" stroke="#000000" d="M 944 152 L 1104 152 L 1104 311 L 944 311 L 944 152 Z Z" stroke-miterlimit="10"/>
		</g>
		<g transform="translate(-30,-46) scale(1,1)">
			<g>
				<path fill="none" stroke="none"/>
				<text fill="#000000" stroke="none" font-family="Arial" font-size="13px" font-style="normal" font-weight="normal" text-decoration="none" x="949" y="170">Management:</text>
			</g>
		</g>
		<g transform="translate(-30,-46) scale(1,1)">
			<g>
				<path fill="none" stroke="none"/>
				<text fill="#000000" stroke="none" font-family="Arial" font-size="13px" font-style="normal" font-weight="normal" text-decoration="none" x="949" y="185"> - OrderManagement</text>
			</g>
		</g>
		<g transform="translate(-30,-46) scale(1,1)">
			<g>
				<path fill="none" stroke="none"/>
				<text fill="#000000" stroke="none" font-family="Arial" font-size="13px" font-style="normal" font-weight="normal" text-decoration="none" x="949" y="200"> - CustomerManagement</text>
			</g>
		</g>
		<g transform="translate(-30,-46) scale(1,1)">
			<g>
				<path fill="none" stroke="none"/>
				<text fill="#000000" stroke="none" font-family="Arial" font-size="13px" font-style="normal" font-weight="normal" text-decoration="none" x="949" y="215"> - EmployeeManagement</text>
			</g>
		</g>
		<g transform="translate(-30,-46) scale(1,1)">
			<g>
				<path fill="none" stroke="none"/>
				<text fill="#000000" stroke="none" font-family="Arial" font-size="13px" font-style="normal" font-weight="normal" text-decoration="none" x="949" y="230"> - InventoryManagement</text>
			</g>
		</g>
		<g transform="translate(-30,-46) scale(1,1)">
			<path fill="none" stroke="#000000" d="M 1104 208 L 1168 208" stroke-miterlimit="10"/>
		</g>
		<g transform="translate(-30,-46) scale(1,1)">
			<path fill="none" stroke="#000000" d="M 1157.837325142376 212.209517756016 L 1168 208 L 1157.837325142376 203.790482243984" stroke-miterlimit="10"/>
		</g>
	</g>
</svg>