<svg version="1.1" xmlns="http://www.w3.org/2000/svg" xmlns:xlink="http://www.w3.org/1999/xlink" width="564" height="324">
	<defs/>
	<g>
		
		<g transform="translate(-630,-286) scale(1,1)">
			<path fill="none" stroke="#000000" d="M 640 296 L 1184 296 L 1184 600 L 640 600 L 640 296" stroke-miterlimit="10"/>
		</g>
		<g transform="translate(-630,-286) scale(1,1)">
			<path fill="#ffffff" stroke="none" d="M 640 296 L 640 318 L 788.9580078125 318 L 799.9580078125 307 L 799.9580078125 296 L 640 296"/>
		</g>
		<g transform="translate(-630,-286) scale(1,1)">
			<path fill="none" stroke="#000000" d="M 640 296 L 640 318 L 788.9580078125 318 L 799.9580078125 307 L 799.9580078125 296 L 640 296 L 640 296" stroke-miterlimit="10"/>
		</g>
		<g transform="translate(-630,-286) scale(1,1)">
			<g>
				<path fill="none" stroke="none"/>
				<text fill="#000000" stroke="none" font-family="Arial" font-size="13px" font-style="normal" font-weight="normal" text-decoration="none" x="671.9599609375" y="313.5">PapasPizzaService</text>
			</g>
		</g>
		<g transform="translate(-630,-286) scale(1,1)">
			<g>
				<path fill="none" stroke="none"/>
				<text fill="#000000" stroke="none" font-family="Arial" font-size="13px" font-style="normal" font-weight="bold" text-decoration="none" x="645" y="313.5">pkg</text>
			</g>
		</g>
		<g transform="translate(-630,-286) scale(1,1)">
			<rect fill="#C0C0C0" stroke="none" x="785" y="367" width="309" height="184" opacity="0.2"/>
		</g>
		<g transform="translate(-630,-286) scale(1,1)">
			<rect fill="#ffffff" stroke="none" x="768" y="360" width="319" height="184"/>
		</g>
		<g transform="translate(-630,-286) scale(1,1)">
			<path fill="none" stroke="#000000" d="M 768 360 L 1087 360 L 1087 544 L 768 544 L 768 360 Z Z" stroke-miterlimit="10"/>
		</g>
		<g transform="translate(-630,-286) scale(1,1)">
			<rect fill="#ffffff" stroke="none" x="768" y="360" width="319" height="184"/>
		</g>
		<g transform="translate(-630,-286) scale(1,1)">
			<path fill="none" stroke="#000000" d="M 768 360 L 1087 360 L 1087 544 L 768 544 L 768 360 Z Z" stroke-miterlimit="10"/>
		</g>
		<g transform="translate(-630,-286) scale(1,1)">
			<rect fill="#ffffff" stroke="none" x="1067" y="370" width="13" height="16"/>
		</g>
		<g transform="translate(-630,-286) scale(1,1)">
			<path fill="none" stroke="#000000" d="M 1067 370 L 1080 370 L 1080 386 L 1067 386 L 1067 370 Z Z" stroke-miterlimit="10"/>
		</g>
		<g transform="translate(-630,-286) scale(1,1)">
			<rect fill="#ffffff" stroke="none" x="1064" y="373" width="7" height="4"/>
		</g>
		<g transform="translate(-630,-286) scale(1,1)">
			<path fill="none" stroke="#000000" d="M 1064 373 L 1071 373 L 1071 377 L 1064 377 L 1064 373 Z Z" stroke-miterlimit="10"/>
		</g>
		<g transform="translate(-630,-286) scale(1,1)">
			<rect fill="#ffffff" stroke="none" x="1064" y="379" width="7" height="4"/>
		</g>
		<g transform="translate(-630,-286) scale(1,1)">
			<path fill="none" stroke="#000000" d="M 1064 379 L 1071 379 L 1071 383 L 1064 383 L 1064 379 Z Z" stroke-miterlimit="10"/>
		</g>
		<g transform="translate(-630,-286) scale(1,1)">
			<g>
				<path fill="none" stroke="none"/>
				<text fill="#000000" stroke="none" font-family="Arial" font-size="13px" font-style="normal" font-weight="bold" text-decoration="none" x="859.5009765625" y="379.5">PapasPizzaService</text>
			</g>
		</g>
		<g transform="translate(-630,-286) scale(1,1)">
			<rect fill="#ffffff" stroke="none" x="761" y="480" width="14" height="14"/>
		</g>
		<g transform="translate(-630,-286) scale(1,1)">
			<path fill="none" stroke="#000000" d="M 761 480 L 775 480 L 775 494 L 761 494 L 761 480 Z Z" stroke-miterlimit="10"/>
		</g>
		<g transform="translate(-630,-286) scale(1,1)">
			<g>
				<path fill="none" stroke="none"/>
				<text fill="#000000" stroke="none" font-family="Arial" font-size="13px" font-style="normal" font-weight="normal" text-decoration="none" x="694.595947265625" y="491">Employee</text>
			</g>
		</g>
		<g transform="translate(-630,-286) scale(1,1)">
			<rect fill="#ffffff" stroke="none" x="1080" y="448" width="14" height="14"/>
		</g>
		<g transform="translate(-630,-286) scale(1,1)">
			<path fill="none" stroke="#000000" d="M 1080 448 L 1094 448 L 1094 462 L 1080 462 L 1080 448 Z Z" stroke-miterlimit="10"/>
		</g>
		<g transform="translate(-630,-286) scale(1,1)">
			<g>
				<path fill="none" stroke="none"/>
				<text fill="#000000" stroke="none" font-family="Arial" font-size="13px" font-style="normal" font-weight="normal" text-decoration="none" x="1104.049560546875" y="460">Boss</text>
			</g>
		</g>
		<g transform="translate(-630,-286) scale(1,1)">
			<rect fill="#ffffff" stroke="none" x="761" y="431" width="14" height="14"/>
		</g>
		<g transform="translate(-630,-286) scale(1,1)">
			<path fill="none" stroke="#000000" d="M 761 431 L 775 431 L 775 445 L 761 445 L 761 431 Z Z" stroke-miterlimit="10"/>
		</g>
		<g transform="translate(-630,-286) scale(1,1)">
			<g>
				<path fill="none" stroke="none"/>
				<text fill="#000000" stroke="none" font-family="Arial" font-size="13px" font-style="normal" font-weight="normal" text-decoration="none" x="662.563232421875" y="427">UnregisteredUser</text>
			</g>
		</g>
	</g>
</svg>